<svg xmlns="http://www.w3.org/2000/svg" viewBox="0 0 191.42 175.62"><defs><style>.cls-1{fill:#fff;}</style></defs><g id="Layer_2" data-name="Layer 2"><g id="Layer_1-2" data-name="Layer 1"><path class="cls-1" d="M165.21,170.51c-.77-.85-1.61-1.65-2.31-2.56q-6.74-8.8-13.43-17.67a18.51,18.51,0,0,0-5.28-4.61,5.73,5.73,0,0,1-1.3-1.3,119.27,119.27,0,0,1-10.84-15.21c-.8-1.3-1.53-2.65-2.29-4a1.7,1.7,0,0,0-.4-.46c.06,1.62-1.08,3.28.43,4.79-1,.56-1,1.36-1,2.26a34.9,34.9,0,0,1-.17,3.53l-.31,0-.42-2.39c-.13-.82-.31-1.63-.37-2.45s0-1.65,0-2.32c-.87.26-1.58.44-2.25.7s-1.31.63-2,1c-2.46,1.23-2.3.73-2.3,3.71,0,1.5,0,3,0,4.5,0,1.08.23,1.22,1.28.9,1.31-.41,2.62-.81,3.94-1.2.35-.1.73-.14,1.31-.26a6.21,6.21,0,0,0-.47.59,2.37,2.37,0,0,0-.44,1c0,2.92,0,5.84,0,8.77,0,.29,0,.58,0,.87h-.23c0-.49-.13-1-.14-1.47,0-1.58,0-3.16-.08-4.73,0-.68-.26-1.35-.35-2a3.48,3.48,0,0,1,.09-.9c.09-.52-.16-.79-.63-.59-1.18.47-2.34,1-3.49,1.5a2.94,2.94,0,0,0-.6.55c.72.44.52.87.19,1.38a2,2,0,0,0-.29,1.09c0,2.59,0,5.18,0,7.76a6.7,6.7,0,0,0,.46,1.51,18.06,18.06,0,0,0,2.15,4.47c.85,1.42,1.67,2.85,2.54,4.27a5.16,5.16,0,0,0,.73.75c.14.15.38.31.38.46,0,1.39,1.08,2.23,1.67,3.32.18.34.42.65.59,1a.53.53,0,0,1-.05.48.54.54,0,0,1-.49,0,4.28,4.28,0,0,1-.7-.71c-.59-.75-1.13-1.55-1.74-2.28a6.21,6.21,0,0,0-1-.83,2.46,2.46,0,0,1-.44-.41q-1.81-2.49-3.61-5s-.14-.06-.33-.15a5.11,5.11,0,0,0-.16.86c0,1,0,2.07,0,3.11,0,.83-.16.89-1,.84a3.72,3.72,0,0,0-2.63.31c-.18.13-.64,0-.91-.13a1.64,1.64,0,0,0-1.88.11c-.22.17-.58.13-.87.21s-.43.09-.5.21a.61.61,0,0,0,0,.56.52.52,0,0,0,.52.08c.36-.26.66-.2.84.15a.86.86,0,0,1,0,.73,1.13,1.13,0,0,1-.81.44c-.44-.09-1,.44-1.31-.21a1,1,0,0,1-.08-.76c.43-.78.21-1.27-.66-1.28s-1.71,0-2.56,0a1,1,0,0,0-.59.15,1.32,1.32,0,0,1-1.55.32,12.48,12.48,0,0,0-2-.37c-.3,0-.69.3-1,.54s-.53.34-.85,0a1,1,0,0,0-1.61,0c-.28.32-.53.32-.86,0a10,10,0,0,0-1-.67c-.64.88-.6.82-1.42.19a1.48,1.48,0,0,0-1.25.11,1.74,1.74,0,0,1-2.4-.21,1.16,1.16,0,0,0-1.64.13c-.37.47-.69,1-1,1.5-.39-.59-.73-1.12-1.08-1.64a1.34,1.34,0,0,0-1.78,0c-.08.1-.12.23-.2.33a1.77,1.77,0,0,0-.11,2.58.82.82,0,0,1,0,.73,2.85,2.85,0,0,0,0,2.79c.2.5.38.78-.07,1.18s-.72-.09-1-.28c-.06,0-.09-.12-.12-.17a3.68,3.68,0,0,0-.19-3.4,1.06,1.06,0,0,1,0-.78,2.38,2.38,0,0,0-.59-3c-.34-.26-.92-.2-1.4-.26a.86.86,0,0,0-1,.66c-.29.74-.74.14-1.14-.07-.47.31-.85.45-1.17-.28-.22-.53-1.73-.42-2.15.05a3.28,3.28,0,0,1-.71.48,4,4,0,0,0-.35-.68c-.12-.15-.38-.38-.49-.34-.41.15-1,.3-1.13.62-.44,1-.72,2.09-1.06,3.15-.09.25-.16.52-.24.78H75.8l-.34-1.95a11.81,11.81,0,0,1-.66,1,8.11,8.11,0,0,0-1,1.27,7.71,7.71,0,0,0-.44,1.7c-.12.58-.23,1.16-.35,1.77-.24-.09-.32-.1-.33-.13-.27-1.64-.59-3.27-.78-4.92a16.72,16.72,0,0,1,.11-2.54c0-.62-.29-.89-.9-.89-1.19,0-2.38,0-3.57,0a6.37,6.37,0,0,0-1.61.31c-.14.05-.23.38-.26.59a7.17,7.17,0,0,0-.06,1h-.23c0-.36,0-.72-.09-1.08,0-.59-.3-.85-1-.8-1.39.12-2.78.15-4.18.21a2.65,2.65,0,0,1-.68-.09c-.74-.21-1-.06-1,.74,0,.41,0,.82,0,1.24,0,.21-.07.41-.1.62h-.22l-.22-2.48a10.57,10.57,0,0,1-1.39-.14c-.45-.1-.76.23-.74.86.07,1.57.14,3.15.19,4.73a9.49,9.49,0,0,1-.14,1.19l-1-1.06c-.09,2.41-.17,4.63-.25,6.85l-.18,0a2.85,2.85,0,0,1-.14-.5c-.19-3-.5-5.93-.55-8.9-.06-4.32.06-8.64.11-13,0-.54.1-1.08.11-1.62a1.94,1.94,0,0,0-.2-.69c-.12-.29-.28-.56-.4-.85-.27-.7,0-1.09.69-1.36a1.2,1.2,0,0,0,.57-.8,15.76,15.76,0,0,0,.09-2.17q0-17.46-.11-34.92,0-7.29,0-14.58a14,14,0,0,1,.16-1.93c.13-1,.1-1-.95-.85.1-.24.26-.44.25-.63a1.06,1.06,0,0,0-.25-.62,5.11,5.11,0,0,0-.81-.8,1.67,1.67,0,0,0-.83-.45c-2.35,0-4.71.06-7.06.09-.51,0-.65.3-.65.76,0,1.4,0,2.79,0,4.19a6.53,6.53,0,0,1-.16,1.46c-.14.67-.46.75-1,.26A7,7,0,0,1,41,92.6a7.43,7.43,0,0,0-.07-.83l-.58,1a49.35,49.35,0,0,0-5.18,15.7c-.71,4.07-1.25,8.17-1.88,12.26-.05.35-.16.68-.27,1.13-.45-.84.66-8.89,2.06-15.68a48,48,0,0,1,5.59-15H37.09v-.31c.82,0,1.65-.1,2.48-.12,1.45,0,1.46-.07,2-1.42s1.23-2.66,1.85-4c.07-.13.12-.27.22-.51-1.38.22-1.38-1-2-1.8a6.56,6.56,0,0,1-.49.93,2.77,2.77,0,0,1-.6.47c0-.23-.07-.46-.09-.69a4.75,4.75,0,0,1,0-.48c-1,.14-2,.26-2.92.42-.11,0-.21.26-.28.42s-.13.54-.3.71-.7.72-1.06.72-.6-.52-.85-.85a3.67,3.67,0,0,1-.31-.84c-.34.45-.6.82-.89,1.17a7.88,7.88,0,0,1-.77.76c-.75.61-.9.58-1.34-.11a29.5,29.5,0,0,1-3.23,1,3.22,3.22,0,0,1-1.77-.26.84.84,0,0,1-.49-1.22,1.63,1.63,0,0,1,1.13-.57,3.52,3.52,0,0,1,1.26.33c.26.09.51.22,1,.43V79.49h.4c.25,2,0,4,.15,6.13a3.16,3.16,0,0,0,1.84-1.5,11.85,11.85,0,0,1,1.29-1.91c.16-.2.57-.18.87-.27,0,.33.1.75-.06,1-.36.52-.88.94-1.29,1.44a7.65,7.65,0,0,0-.56.91l.26.22a10.94,10.94,0,0,0,1-1c.37-.46.65-1,1-1.46a.52.52,0,0,1,.44-.21c.12,0,.22.25.27.4.12.47.17,1,.33,1.43s.51.46.76.08A1.54,1.54,0,0,0,36.66,83a1.94,1.94,0,0,1,.25-2.11.62.62,0,0,1,.45-.19.55.55,0,0,1,.3.39,7.28,7.28,0,0,1,0,1.32c-.08.57.15.76.69.69.86-.11,1.73-.19,2.59-.32.14,0,.25-.22.38-.33l.43-.39a2.79,2.79,0,0,1,.42.5c.28.56.52,1.14.78,1.7l.28,0a4.59,4.59,0,0,1,.11-.84,4.11,4.11,0,0,1,.37-.68,6.75,6.75,0,0,1,.44.65,3.73,3.73,0,0,1,.14.66l2.23-1.56.15.18c-.75,1.05-2.31,1.52-2.21,3.18a29.48,29.48,0,0,1,2.2-2c.8-.61,1.69-1.08,2.59-1.64l-.41-.46c1.13-.4,2.18-.78,3.24-1.14a.48.48,0,0,1,.38.15.62.62,0,0,1-.14.46c-.33.33-.7.61-1.11,1l-.33-.73-4.59,3.35c-.07,0-.11.12-.17.16-1.91,1.28-2,3.17-1.73,5.17.06.52.39.61.81.61,1.69,0,3.37,0,5.05-.08s3.44-.29,5.16-.41c.64,0,.92-.32.91-1,0-1.7,0-3.41,0-5.12A7.22,7.22,0,0,0,56,82.62a4.47,4.47,0,0,1-1.33-.32,1.25,1.25,0,0,1-.41-.89c0-.43.33-.45.73-.42a1.06,1.06,0,0,0,1-1.11c.06-1.23.25-2.45.27-3.67,0-2.69,0-5.38,0-8.07,0-.65-.2-.91-.87-1-4.43-.41-8.86-.91-13.29-1.29A35.29,35.29,0,0,0,28.52,67a16.55,16.55,0,0,0-3.38,1.53,4.51,4.51,0,0,0-2.37,3.86,1,1,0,0,1-.29.68,3.92,3.92,0,0,1-.16-.74,4.41,4.41,0,0,1,1.36-3.28,9.61,9.61,0,0,1,3.84-2.27,30.28,30.28,0,0,1,8.75-1.57,86.13,86.13,0,0,1,13.23.84c2,.21,4,.38,6,.59.6.06.86-.13.82-.76a16.26,16.26,0,0,1,0-1.71c0-.63-.24-.89-.86-.88-1.45.05-2.9.07-4.35.1l-14.59.23a5.35,5.35,0,0,1-.63-.09,2,2,0,0,1,.5-.23c.46-.05.93-.09,1.39-.1L52.54,63c1,0,2-.08,3-.09.57,0,.78-.27.77-.82s0-1.39,0-2.09-.37-.87-1-.86l-7.37.15c-.71,0-1.42,0-2.13,0V59c.56,0,1.12-.11,1.68-.12,2.38,0,4.76,0,7.14-.09,1.65,0,1.65-.05,1.64-1.7l-.09-31.43c0-1.59,0-3.18,0-4.78,0-1,.35-1.3,1.37-1.34,1.18,0,2.36-.19,3.55-.2,1,0,2,.18,3,.21s1.08-.05,1.08-1.11c0-.85,0-1.7,0-2.56h.35v2.41c0,1.24,0,1.24,1.26,1.22,1,0,2.07-.07,3.11,0a4.27,4.27,0,0,1,1.4.29c.87.33,1.45,0,1.48-.93s0-1.55,0-2.33H73c0,.08.1.16.1.25.11,1.67.29,3.34.3,5,0,5.51-.21,11,.09,16.53.34,6.13-.22,12.24,0,18.36,0,.71.15,1.42.22,2.06,1.07,0,2,0,2.92,0,.46,0,.75-.1.74-.63s0-.77,0-1.16c-.51-15.79-2-31.55-1.81-47.37,0-2.11.22-4.21.31-6.32,0-.65-.06-1.3,0-1.94A8.68,8.68,0,0,1,76,.07l.3-.07a3.13,3.13,0,0,1,.44.85,12.7,12.7,0,0,1,.15,1.85c0,2.77,0,5.54,0,8.31,0,.42,0,.79.46,1a1.09,1.09,0,0,1,.36.73,12,12,0,0,1,.06,1.47q.15,17.85.3,35.7c0,2.27.1,4.55.16,6.82,0,.18,0,.37,0,.55.08,1.48.22,1.51,1.71,1.49,3-.05,6,0,9,0l26.39.13c.1,0,.23,0,.31,0,.23-.13.45-.3.67-.45-.22-.15-.45-.43-.68-.43-1.63,0-3.26,0-4.89.05-.34,0-.67,0-1,0l-14.59.23c-2.2,0-4.39.11-6.59.11-1.21,0-2.43-.1-3.64-.15v-.24c1.48,0,2.95,0,4.42,0q7.41-.09,14.83-.22c3.64-.07,7.29-.17,10.94-.25,1.23,0,1.28-.09,1.24-1.35q-.23-7.17-.44-14.34c0-.3,0-.6,0-.9l.26,0c0,.37.13.75.15,1.12.06,1.86.12,3.72.17,5.58l.21,8.69c0,1.14.1,1.22,1.27,1.2,1.78,0,3.57-.07,5.35-.12.92,0,1-.1,1-1-.1-5.84-.22-11.69-.33-17.53,0-.32,0-.64,0-1l.28,0c0,.51.12,1,.13,1.53.08,3.46.13,6.93.2,10.39.05,2.23.12,4.45.14,6.68,0,.69.26,1,1,.95,7.14-.16,14.28-.29,21.42-.43h1.57l0,.28a6.33,6.33,0,0,1-.74.12c-3.52.06-7,.11-10.55.18q-5.74.1-11.48.27c-.38,0-1.06.26-1.07.42a3.85,3.85,0,0,0,.31,1.88c.16.33.53.53.53,1,0,.14.48.4.75.41,1.37,0,2.74-.06,4.11-.08l14-.22a1.16,1.16,0,0,1,.68.2,2.23,2.23,0,0,1-.44.13c-.72,0-1.44.09-2.17.1L128.1,62c-.57,0-1.14.07-1.7.09s-.82.29-.66.85a1.07,1.07,0,0,1-.3,1.18,2.21,2.21,0,0,0-.37,1.14c-.12.79-.18,1.58-.27,2.49l-.58-.35q-1.34,4.5-2.68,9a3,3,0,0,1,.59,2.69,1.6,1.6,0,0,1-1.69.76.68.68,0,0,0-.55.33q-1.29,3.94-2.51,7.92a.77.77,0,0,0,.79,1c1,0,2.06-.07,3.09-.13a.9.9,0,0,0,.32-.13c0-.16-.12-.35-.06-.43a7.48,7.48,0,0,1,.68-.81c.19.22.54.45.54.68,0,.58.32.74.79.7a12.83,12.83,0,0,0,1.49-.24,1.53,1.53,0,0,1,.3,0A26.27,26.27,0,0,0,128,89c7.07,0,14.13,0,21.19,0,5.46,0,10.91.19,16.37.31,2.06,0,4.12.23,6.19.26,3.64,0,7.28,0,10.93,0,.59,0,1.18-.09,1.77-.09.44,0,.87.11,1.3.12a6.07,6.07,0,0,0,2-.07,3.46,3.46,0,0,1,2.4.22c.12,0,.3.32.26.39a.73.73,0,0,1-.45.33c-.5.13-1,.2-1.53.29V91a1.6,1.6,0,0,0,.44.14,3.47,3.47,0,0,1,1-.1,12.51,12.51,0,0,1,1.63.64c-.43.23-.84.49-1.28.69-.19.09-.45.06-.68.25a6,6,0,0,1,1.2.09,2.62,2.62,0,0,1,.76.46c-.25.13-.49.38-.75.39-2.34.12-4.69.19-7,.28L179,94c-.13,0-.29,0-.38,0a7.88,7.88,0,0,0-.62.55c.25.06.52.22.75.17.5-.12,1-.34,1.46-.51.16,0,.33,0,.66-.11-.21.26-.3.44-.43.5a26.1,26.1,0,0,1-3,1.26c-5.89,1.77-11.8,3.48-17.7,5.24a11.67,11.67,0,0,0-1.82.93,2.59,2.59,0,0,1,1.74-1.45q5.56-1.73,11.13-3.42c1.15-.36,2.32-.68,3.48-1l0-.2h-6.45c.16,1,.17,1.06-.94,1.28-2.77.55-5.55,1-8.31,1.6a4.21,4.21,0,0,0-1.17.73c-.24.16-.47.43-.73.47-1.79.25-3.58.51-5.37.67s-3.51.24-5.27.28a127.08,127.08,0,0,0-15.23,1.08c-.49.07-.82.19-.84.78q-.37,8.1-.8,16.19a5.64,5.64,0,0,0,.79,3.17c1.91,3.4,4.47,6.33,6.81,9.41q13.5,17.78,27,35.5a9.69,9.69,0,0,1,.64,1.38c.27.52.6,1,.89,1.52a1.69,1.69,0,0,1,.1.34ZM86.05,157.33a11.38,11.38,0,0,0-.92,1.36c-.36.74-.61,1.53-.91,2.3-.2.49,0,.75.49.77s.93,0,1.4,0c1.26,0,1.44-.23,1.56-1.46a1.15,1.15,0,0,1,.4-.67c.06-.06.44.07.5.19a1,1,0,0,1,0,.7c-.24.59-.07,1.05.56,1.16a4.86,4.86,0,0,0,1.08,0,1.42,1.42,0,0,0,1.33-1.4c0-.38-.22-.9.4-1a.92.92,0,0,1,.56.23,7.2,7.2,0,0,1-.39,1.22,10.52,10.52,0,0,0,1.45.91c.41.18.91.22,1.11-.45,0-.16.42-.24.67-.31a3,3,0,0,1,.68-.12c.27,0,.62-.1.8,0a.83.83,0,0,1,.23.73c-.14.49.08.64.47.66s.56-.07.84-.08.68,0,1,0,.86-.13,1.29-.2l-.26-1.14c.35-.36.79-.88.17-1.57a.58.58,0,0,1,.19-.44.83.83,0,0,1,.58,0,.42.42,0,0,1,.18.37c-.47.71,0,1.19.42,1.6a1,1,0,0,1-.08.22c-.26.32-.66.72-.1,1a1.8,1.8,0,0,0,1.33,0c.52-.21.34-.63,0-1s.06-.71.29-1a.65.65,0,0,1,.62,0c.3.22.59.48.19.94s-.24,1.13.43,1.16a20,20,0,0,0,2.67-.22,2.57,2.57,0,0,1,1,0,6.62,6.62,0,0,0,3.79.1,9.13,9.13,0,0,1,1.29-.21,4.46,4.46,0,0,1,1.89.32c.33.11.77-.13,1.17-.21a3.17,3.17,0,0,1,.86-.11c.72.09,1.44.28,2.16.37.52.06.75-.22.71-.76-.13-1.62-.21-3.25-.37-4.87a4.33,4.33,0,0,0-.44-1.54c-.58-1.09-1.26-2.11-1.86-3.18-1.6-2.81-3.18-5.63-4.77-8.44-.24-.43-.43-.9-1.07-.87-.12,0-.33-.26-.36-.43-.15-.79-1-1.4-.64-2.33,0,0,0-.09,0-.14-.33-1-1.07-1.91-.81-3.08,0-.1-.08-.24-.13-.35-1.17-2.25-2.29-4.53-3.53-6.74a13.12,13.12,0,0,0-1.74-2c-.12.24-.21.33-.21.42,0,1.6-.06,3.2,0,4.8,0,.23.52.58.82.62a2,2,0,0,0,2.23-.75c.28.48.65,1,.52,1.37-.2.5-.73.57-1.37.32a1.6,1.6,0,0,0-2.31,1.59,5.21,5.21,0,0,1-.1.57l-.27.06a10.68,10.68,0,0,1-.32-1.06c-.15-.74-.45-.89-1.11-.54a.88.88,0,0,1-.5.15c-.78-.15-1,.1-.78.88.06.2-.29.51-.45.77-.17-.25-.52-.51-.49-.74,0-.46,0-.77-.48-.84-.76-.1-1.56.22-1.64.66a1.4,1.4,0,0,1-2.14,1,1.24,1.24,0,0,0-1.69.2,15.05,15.05,0,0,0-1.1,2.27c.52,0,.8,0,1.07,0,1.2-.09,2.4-.23,3.61-.3,1-.05,2.07.21,2.91-.56a3.6,3.6,0,0,0,2.68.08,2.27,2.27,0,0,1,1.62.24c.32.18.16.74-.31.79s-1.1.61-1.71.09c-.09-.08-.34,0-.52,0-.65.09-1.3.23-2,.27-.94.06-1.87,0-2.81.07-.48,0-.95.22-1.43.21a17.64,17.64,0,0,1-2.29-.17c-1.28-.16-1.62.81-1.73,1.7,0,.33-.18.64-.24,1-.09.56-.15,1.14-.23,1.7l1.54.17s0,0,.07,0a1.77,1.77,0,0,1,.65.3.59.59,0,0,1,0,.56,1.32,1.32,0,0,1-.69.19,6.61,6.61,0,0,0-1-.06c-.54.11-1,.73-1.63.35,0,0-.23.13-.27.23-.18.44-.32.89-.54,1.52.55-.16.93-.28,1.32-.38a1.6,1.6,0,0,1,.49,0c.56,0,1.13.07,1.69.05,1,0,2.11.17,3.05-.48,0,0,0,0,.07,0,.91,0,1.82.13,2.72.11a6.36,6.36,0,0,0,1.24-.34,1,1,0,0,1,.57,0,2.42,2.42,0,0,0,2.54-.3c.43.36.86.68,1.42.19.08-.07.47.07.56.21a.78.78,0,0,1,0,.61c-.77.16-1.54.3-2.33.39s-1.37.09-2.06.14a3.82,3.82,0,0,1-.57.11c-.79,0-1.57-.09-2.35-.06s-1.46.2-2.19.25-1.23,0-1.84,0c-1.28.11-2.55.32-3.83.37a1.22,1.22,0,0,0-1.33.91c-.26.89-.47,1.79-.8,2.65s-.47,1.41.33,2a.67.67,0,0,1,.08.62c-.22.2-.68.45-.8.36-.78-.55-1,.05-1.3.54a2.77,2.77,0,0,0-.08,1c.35-.1.72-.19,1.06-.32a4.68,4.68,0,0,0,.7-.37,4,4,0,0,1,.53,1.35c0,.23-.59.66-.91.65A7,7,0,0,1,86.05,157.33Zm1.14-17.23-.35-.17c-.25.43-.52.85-.77,1.28a7.53,7.53,0,0,1-.66,1.14c-.16.18-.49.22-.74.33a2,2,0,0,1-.08-.82,11.53,11.53,0,0,1,.65-1.32c.59-1.23,1.16-2.47,1.75-3.69a2.65,2.65,0,0,1,.41-.54c.28-.32.59-.62.87-.95.67-.75.56-2,1.55-2.55.13-.07.16-.37.17-.57.06-1.67.16-3.34.15-5,0-2.89-.13-5.78,0-8.67.1-2.14.05-4.28.07-6.42,0-1.1-.07-1.18-1.13-1.06s-2.08.31-3.13.36c-1.46.06-2.93,0-4.39,0-.53,0-.78.23-.75.75,0,.73.1,1.45.15,2.18a2.32,2.32,0,0,1-.06.45A10.3,10.3,0,0,0,81,120.2a.69.69,0,0,1,0,.51c-.65,1.18-.26,2.34,0,3.51a2.41,2.41,0,0,1,.09.59,11,11,0,0,0-.19,3.26,3.24,3.24,0,0,1-.3,2.69,3.21,3.21,0,0,0-.14,1.37,1,1,0,0,1-.25-.68c-.1-3.28-.22-6.56-.3-9.84-.08-3.08-.11-6.15-.19-9.23,0-1.07-.37-1.22-1.3-.66a1.14,1.14,0,0,0-.32.22c-.82.9-1.86,1.62-2.28,2.85a1.08,1.08,0,0,1-.48.49,4.05,4.05,0,0,0-2.15,3.9c0,4,0,8,0,11.95v.74h-.15v-7.32a19.05,19.05,0,0,0-.15,2.92c0,4.6.09,9.2.15,13.81q.11,9.22.23,18.45c0,.49,0,1,.07,1.47,0,.21.1.57.21.59a1.53,1.53,0,0,0,.87-.11c.19-.09.3-.35.41-.55,1.38-2.48,2.75-5,4.13-7.46.38-.68.79-1.33,1.19-2,.92-1.53,1.82-3.07,2.78-4.57,1.13-1.78,2.34-3.52,3.47-5.3A12.48,12.48,0,0,0,87.19,140.1ZM76.56,67.23c-.6.21-1.12.38-1.62.59a1.08,1.08,0,0,0-.53.4,3.47,3.47,0,0,0,.65,3.32c1.66,1.12,2.43,3,3.67,4.42a4.46,4.46,0,0,1,.71,1.37c.07.19,0,.45-.09.68-.23-.07-.53-.08-.68-.24a4.08,4.08,0,0,1-.48-.78,22.83,22.83,0,0,0-1.34-1.88c-.42-.5-1.06-.8-1.1-1.6,0-.22-.31-.48-.54-.62a1.65,1.65,0,0,0-.68-.1,2.64,2.64,0,0,0,.24.65,5,5,0,0,0,.67.64c-.33.26-.75.45-.73.61a1.39,1.39,0,0,0,.47.81,8.31,8.31,0,0,1,2.39,2.91c.06.15.23.37.34.36.55,0,1.1-.08,1.66-.12a2.73,2.73,0,0,1,.7,0,7.59,7.59,0,0,0,1.13.24c1.75,0,3.5-.11,5.26-.17,4.67-.15,9.35-.34,14-.44s9.57-.11,14.35-.17c1,0,1.18-.14,1.18-1.16,0-3,0-5.89,0-8.84,0-1.4-.16-1.54-1.58-1.54-11,0-22.09,0-33.13.53a11.11,11.11,0,0,0-1.22.34,1.33,1.33,0,0,1-.92-.07c-.43-.36-.65-.23-.8.2s-.22.78-.3,1.08l-.49-1.22-1,.41ZM76.09,85.1a18.82,18.82,0,0,0,.79-2.84,7.59,7.59,0,0,0-.47-4.41,2,2,0,0,0-1.94-1.19c0,.3.16.64.06.89a3.72,3.72,0,0,0,0,2.63,3.08,3.08,0,0,1,0,1.21c-.06.73-.19,1.47-.19,2.2s.13,1.46.2,2.2a1.46,1.46,0,0,0,0,.3,3,3,0,0,1-.13,2.6c-.43.88-.07,1.38.91,1.37h.86l31.48-.63c2.36,0,4.71,0,7.06,0,.65,0,1.14-.17,1-1a.82.82,0,0,1,0-.3,14,14,0,0,0,.1-6.62,1.2,1.2,0,0,1,.08-.59c.31-.82,0-1.29-.88-1.29-2.43,0-4.86,0-7.29.11q-7.59.24-15.18.56c-3.52.15-7,.38-10.54.58a3,3,0,0,0-.61.13c0,.57,0,1,0,1.49a3.07,3.07,0,0,1-.24.68c-.27-.15-.69-.24-.78-.46C80.18,81.89,80,81,79.68,80a4.34,4.34,0,0,0-1.41.4,2.45,2.45,0,0,0-.59,1.17,1.5,1.5,0,0,0-.07,1A2,2,0,0,1,76.09,85.1ZM65.62,146.18l-.16,0c-.08-1.6-.15-3.2-.26-4.79,0-.22-.2-.62-.3-.62-.92,0-1.84.07-2.76.15a9.13,9.13,0,0,1-1.35.19c-.48,0-.64.12-.73.55-.26,1.19-.57,2.36-.84,3.55-.34,1.45-.7,2.9-1,4.37a12,12,0,0,0-.1,1.59,3.28,3.28,0,0,1-.21-.77c-.06-.24-.16-.48-.25-.73l-.1,0-.41,3.74-.34,0c-.73-1.31-.18-2.77-.41-4.18a2,2,0,0,0-.48,1c-.29,2.46,0,11.33.32,11.78l2-.22c.07,0,.14.07.22.08a8.07,8.07,0,0,0,1.67.27c1.37,0,2.73-.21,4.1-.28,1,0,1.06,0,1-1.07a16.55,16.55,0,0,1-.34-1.79,21.27,21.27,0,0,1,.39-2.59,2.26,2.26,0,0,0,1.76,1.66c1.34-.05,2.68-.11,4-.21.24,0,.67-.23.67-.36,0-.92.38-1.89-.32-2.74a1,1,0,0,1-.06-1.35,1.34,1.34,0,0,0,.26-.83c-.12-1.22-.27-2.45-.51-3.65a.93.93,0,0,0-.77-.5c-1.58.32-3.26.08-4.76.87a1,1,0,0,1-.45,0c-1.41.08-2.81.14-4.22.23-.42,0-1,.52-1.19-.16s.49-.72.88-1a.54.54,0,0,1,.21-.08c1.65-.19,3.29-.4,4.93-.55,1.46-.13,2.92-.2,4.37-.28.69,0,.93-.41.92-1.07,0-1.81,0-3.62,0-5.43a3.57,3.57,0,0,0-.12-.68c-1.45,0-2.76,0-4.07,0-1,0-1.21.27-1.22,1.27C65.61,143.13,65.62,144.65,65.62,146.18Zm7-33.11-.2,0-.86,1c-.3-.88-.11-1.51.43-1.82.76-.42.69-1.09.75-1.72,0-.4-.15-.78-.74-.52-.17.07-.43-.07-.66-.08-.63,0-1.26,0-1.89,0-.23,0-.47.15-.67.09a4.44,4.44,0,0,0-3.09,0,1.46,1.46,0,0,1-.68,0,7.07,7.07,0,0,0-1.19-.21c-.68,0-1.36.18-2,.2-.42,0-.85-.2-1.27-.19s-1,.23-1.42.24c-1,0-1,0-1,1,.08,3.69.24,7.39.25,11.09,0,4.88-.08,9.76-.12,14.65,0,1.29,0,2.58,0,3.88a6.76,6.76,0,0,1-.19,1.06l-.18,0-.35-8.07h-.1v9.68a1.37,1.37,0,0,0,.58-.65q1.28-3,2.52-6c1-2.36,1.93-4.73,2.9-7.09a1.47,1.47,0,0,1,.22-.41,5.79,5.79,0,0,0,1.5-4.42q0-3.3,0-6.6h.06q.18,3.38.37,6.75a6,6,0,0,0,2.53-2.9,16.93,16.93,0,0,1,1.56-2.76,11.14,11.14,0,0,0,1.87-3.62,16.41,16.41,0,0,1,.76-1.51A7.47,7.47,0,0,0,72.64,113.07ZM64.71,25.32a1.07,1.07,0,0,0,.33-1.7,2.82,2.82,0,0,1-.31-.9c-.09-.26-.11-.6-.29-.76s-.46,0-.71,0a6,6,0,0,1,.22.72,5.2,5.2,0,0,1,.07.69c-.26,0-.58.14-.77,0s-.36-.47-.53-.72-.12-.36-.24-.44A2.43,2.43,0,0,0,59,24.09c-.07,1.18-.09,2.37-.14,3.55-.33,7.62.66,15.23-.14,22.85a66.27,66.27,0,0,0,0,7c0,.93.13,1,1,1l4,0c1.54,0,1.58,0,1.53-1.51-.18-6.67-.32-13.34-.62-20-.19-4-.08-8.13-1-12.11a2.3,2.3,0,0,1,.08-.77l.24-.08Zm46.52,75.44a7.88,7.88,0,0,1-1.18-.15,5.91,5.91,0,0,1-.89-.4,9.46,9.46,0,0,1,1-.26,2.09,2.09,0,0,1,.61,0,1.25,1.25,0,0,0,1.4-.72c.41-.75.86-1.47,1.32-2.19a4,4,0,0,1,.56-.6l.17.15-1.87,3.18c.72.21.92-.19,1.13-.59l3-5.67c.12-.23.19-.48.32-.8a3.44,3.44,0,0,0-.59,0c-1.31.31-2.63.58-3.92,1-1.82.51-3.71.72-5.42,1.72-1.54.9-3.56.47-5.15,1.46,0,0-.1,0-.15,0a7.46,7.46,0,0,0-1.43.16c-1.16.37-2.28.88-3.45,1.22s-2.32.5-3.06,1.67c-.26.41-.89.59-1.35.86a1.77,1.77,0,0,0-1,1.68c0,1.49,0,3,0,4.49,0,.84.29,1.25,1.11,1.22,1.87-.07,3.77.35,5.61-.25a.83.83,0,0,1,.38,0,15.15,15.15,0,0,0,2.58.22,4.1,4.1,0,0,0,2.13-.71c2.08-1.62,4-3.36,6.07-5,.18-.14.43-.39.57-.35C110.86,102.39,110.65,101.31,111.23,100.76Zm30.48-4.87,0-.23a4.43,4.43,0,0,1,1-.32c2.06-.21,4.12-.39,6.17-.58,1.44-.14,1.44-.14,1.64-1.53.14-1,.11-.93-.9-1-3.47-.35-6.92.82-10.39.08a8.4,8.4,0,0,0-1.85.13c-3.18.06-6.36.07-9.54.18-.8,0-1.62-.68-2.41,0,0,0-.2,0-.3,0a6.62,6.62,0,0,0-1.23-.22c-.75,0-1.5.11-2.25.14-1,0-1.14.19-1,1.14a2.73,2.73,0,0,1-.19,2c-.12.19,0,.55,0,.83a7.58,7.58,0,0,1,0,1.78c-.17.83,0,1.2.85,1.22s1.86,0,2.8,0,1.17-.19,1.17-1.19c0-.59,0-1.19,0-1.78a2.53,2.53,0,0,1,.12-.53,13.12,13.12,0,0,1,.3,2.53.76.76,0,0,0,.83.82c.62,0,1.27,0,1.57-.7.06-.14.2-.32.31-.33.85,0,.8-.7.93-1.26a3.06,3.06,0,0,1,.29-1,2.58,2.58,0,0,1,.66-.55,2.52,2.52,0,0,1,.25.81c0,.74-.13,1.48-.15,2.23,0,.18.22.52.33.52.87,0,1.72.52,2.61.08a2.31,2.31,0,0,1,.92-.12l11.71-.23c1.29,0,2.58,0,3.88,0,.72,0,1-.43,1.06-1.07.12-1.3-.15-2.09-.75-2.23a.81.81,0,0,0-.31,0c-1.52.12-3,.27-4.56.34C144.05,95.93,142.88,95.89,141.71,95.89Zm-39-3.19.06-.21c-.16-.07-.32-.21-.49-.21a17.37,17.37,0,0,0-1.91,0c-1.25.06-2.51.21-3.77.22-1.43,0-2.86-.13-4.29-.12-3.93,0-7.85.08-11.78.15-1.58,0-3.15.12-4.73.19l-9.38.37c-.76,0-1-.16-.8-.89.3-1.11.68-2.21,1.08-3.3.05-.15.39-.25.6-.28,1.38-.17,2.77-.27,4.14-.49a1.19,1.19,0,0,0,1-1.25c0-.77-.13-1.54-.09-2.31a9.5,9.5,0,0,1,.39-1.43,2,2,0,0,0,0-.84c-.09-.36-.38-.7-.39-1.06,0-1.82,0-3.65,0-5.47a1,1,0,0,0-.65-.77,10.61,10.61,0,0,0-2.91-.2c-1.9.24-2.61,1.18-2.63,3.1,0,1.31.08,2.64-.06,4a6.62,6.62,0,0,0-.14,2.53,14.54,14.54,0,0,1-.08,4.21,26.42,26.42,0,0,1-.44,2.64A5.43,5.43,0,0,1,65,92.57a1,1,0,0,1-.71.54c-1.67.07-3.35,0-5,.12-.32,0-.86.25-.9.46a10.13,10.13,0,0,0,0,1.91,2,2,0,0,0,1.71-.19,4.35,4.35,0,0,1,2-.43,7.87,7.87,0,0,1,1.59.16l.93.15c.38-.18.67-.44,1-.45,1.55,0,3.1,0,4.65,0,.53,0,1.1-.38,1.56-.25.87.23,1-.19,1-.84a.32.32,0,0,1,.1-.19,4.72,4.72,0,0,0,1,.86,2.87,2.87,0,0,0,2.81-.08c.14-.09.39,0,.59,0a5.22,5.22,0,0,0,1.28.16c.88-.12,1.71-.7,2.63-.18.08,0,.28-.11.41-.18.77-.39,1.07-.24,1.35.59.07.2.31.34.47.51.11-.2.32-.39.32-.59,0-.59.26-.78.83-.7a3,3,0,0,0,1.19,0c.59-.17.87,0,.87.56s.27.71.78.72.91-.18.92-.84c0-.2.3-.39.46-.59a7.31,7.31,0,0,1,.59.52c.06.06,0,.23.05.3s.36.39.54.58a4.11,4.11,0,0,0,.48-.64c.09-.15,0-.39.12-.51a6.12,6.12,0,0,1,.73-.71,2.6,2.6,0,0,1,.34.77c.08.7.29,1.21,1.13,1.16a1.55,1.55,0,0,1,.5.16c-.69.36-1.83-.06-1.67,1.34,1.3,0,2-1,2.71-1.72a3.08,3.08,0,0,0,1.15.14C97.87,94.43,100.29,93.56,102.72,92.7ZM72.79,102h0V99.51c0-1,0-1.91,0-2.87,0-.4,0-.81-.69-.76C70.73,96,69.36,96,68,96l-.08,0-2.11.06c-.28,0-.56,0-.84,0-.81,0-1.62,0-2.43.07-1,.08-1.93.29-2.89.35-.69,0-1.48.45-1.48,1q0,4.94,0,9.85c0,.48.12.89.8.62.17-.07.43.1.65.11.43,0,.87.05,1.3.05h2c.69,0,1.37-.07,2.06-.09.34,0,.68,0,1,0l2.5,0h.88c.66,0,1.31,0,2,0,.17,0,.37-.16.51-.11,1,.36,1-.28,1-.9ZM66.46,38a2.1,2.1,0,0,0-.07.51c0,1,0,2.07.08,3.1.13,3,.3,6.1.41,9.14,0,1.11-.11,2.22-.11,3.33s.16,2,.09,3c0,.81.26,1.2,1,1.32a2.49,2.49,0,0,0,.66,0l1-.06,1.06-.06a4.48,4.48,0,0,0-.2-1C69.74,55.62,69,54,68.34,52.4c-.1-.26-.06-.82.09-.89.49-.22.51-.56.5-1a1.94,1.94,0,0,1,.17-.6l.27,0a8.29,8.29,0,0,1,.31.92c.22,1,.39,2.08.63,3.12A5.49,5.49,0,0,0,70.77,55,9.36,9.36,0,0,0,71,52.56c-.1-2.29-.26-4.59-.39-6.88a3.38,3.38,0,0,1,0-1.39,4.25,4.25,0,0,0-.07-2.57,21.39,21.39,0,0,1-.32-2.37c0-.47,1-1.55,1.14-1.37a3.39,3.39,0,0,1,.52,1.24,1.2,1.2,0,0,1,0,.38c0,2.56,0,5.12.08,7.68,0,.85.14,1.69.22,2.54a6.68,6.68,0,0,0,0-1.48c0-3.66.12-7.33.14-11,0-5.32,0-10.65,0-16,0-.57-.2-.89-.81-.85-1.54.1-3.07.2-4.6.33-.14,0-.35.29-.35.45,0,1,0,2,0,3,0,.63.13,1.1,1,1.08a6.46,6.46,0,0,1,1.56.27.77.77,0,0,1,.46.32c0,.09-.1.37-.22.43a7.49,7.49,0,0,1-1.83.77c-.7.14-.85.46-.85,1.1,0,2.35,0,4.71,0,7.06,0,1,0,1,1,1,1.2,0,2.41,0,3.62.07.24,0,.46.38.68.57a2.5,2.5,0,0,1-.79.47c-.5.09-1,0-1.54.09C68.7,37.66,67.65,37.81,66.46,38Zm41.13,76.83.2.26c-.19.22-.35.47-.55.68-1.36,1.35-2.73,2.67-4.07,4a7.61,7.61,0,0,0-.82,1.13c.77.82,1.46.55,2.21.19a1,1,0,0,1,1.36.33L103.61,123a16.7,16.7,0,0,0,1.83,1c.16.07.47-.24.72-.36a1.37,1.37,0,0,1,.29-.07,14.7,14.7,0,0,0,1.78-.31c1.41-.42,2.83-.83,4.2-1.36,1.13-.43,2.2-1,3.3-1.54a3.76,3.76,0,0,1,3-.46,1.1,1.1,0,0,0,1.34-.72c.18-1.41.1-2.84.19-4.26a12,12,0,0,0-.85-3.73c-.09-.32-.42-.57-.64-.85l-.23.09-.24,1.32c-.24-.24-.23-.52-.35-.7s-.47-.71-.73-.73a16.59,16.59,0,0,0-2.11.12,12.35,12.35,0,0,1-3.44.06,9.26,9.26,0,0,0-2.91.12.86.86,0,0,0-.54.4c-1,1.71-2,3.43-3,5.15l.12.08ZM84.78,65.62c.5,0,.77,0,1,0,1.34-.09,2.67-.24,4-.29,2.28-.08,4.57-.08,6.86-.13.9,0,1.8-.07,2.69-.08,1.55,0,3.09,0,4.63,0,1.15,0,2.29-.13,3.44-.18s2.26,0,3.38-.09,2.54-.23,3.81-.29,1.24-.1,1.27-1.23v-.39c0-1.26-.11-1.37-1.36-1.37q-9-.07-18.07-.12l-10.15-.06H79c-.18,0-.49.17-.52.31a1.2,1.2,0,0,0,.14.76c.07.14.32.19.53.29-.8.49-.8.49-.78,1.43,0,.47,0,.94.08,1.4a.7.7,0,0,0,.3.46,3.4,3.4,0,0,0,2.32-.89c.31-.65.54-1.34.82-2,.44-1,.6-1.08,1.75-.36-1.48.06-1.27,1.19-1.43,2.13a6.83,6.83,0,0,0,1.65-1.14c.4-.38.65-.94,1.08-1.28a4.72,4.72,0,0,1,1.4-.59c.17-.06.5,0,.56.06.33.55.83.4,1.31.41a4.08,4.08,0,0,1,.69.09v.32c-.44,0-.88,0-1.32,0-.27,0-.66,0-.79.19C86.13,63.74,85.53,64.6,84.78,65.62Zm-3,30.28v.17c-2.61,0-5.22,0-7.83,0-.63,0-.84.18-.83.84,0,3.26,0,6.51,0,9.77a2.93,2.93,0,0,0,.24,1.25c.05.12.57,0,.87,0,.1,0,.21.09.3.08a2.46,2.46,0,0,0,.93-.27A1.87,1.87,0,0,0,76,107c.51-1.22,1-2.45,1.5-3.66a1.49,1.49,0,0,1,.59-.75c.67-.34,1.39-.59,2.09-.87.89-.36,1.86-.25,2.77-.71,1.74-.87,3.6-1.51,5.4-2.26.49-.2,1-.48,1.43-.7a1.35,1.35,0,0,0,.72-1.62c-.11-.69-.64-.48-1-.48ZM71.34,120c-1.26,1.35-10.49,19-10.44,19.8a7.88,7.88,0,0,1,1.81,0,2.92,2.92,0,0,0,2.7-.9c.29.14.57.4.85.4,1.29,0,2.58-.06,3.87-.12a.73.73,0,0,0,.54-.3A7.58,7.58,0,0,0,71,137c.09-3.23.1-6.46.21-9.69,0-1.44.26-2.87.38-4.3a1.87,1.87,0,0,0,0-.53c-.07-.48-.18-1-.24-1.42A9.55,9.55,0,0,1,71.34,120ZM107,127.39c0,.22-.09.35,0,.42.84,1.54,1.67,3.08,2.54,4.59a.87.87,0,0,0,.75.29c.71-.17,1.38-.39,2,.22.07.07.3,0,.44,0,1.66-.65,3.32-1.29,5-2,.2-.08.45-.28.48-.45a14.32,14.32,0,0,0,.26-2.35c0-1.93-.1-3.87-.16-5.81,0-1-.14-1-1.06-.66-2.84,1-5.68,2.06-8.54,3.06a3.87,3.87,0,0,1-1.18,0l0,.1-1.58.5.55,1.31,2-.75c-.12.38-.39.59-.41.82C108,127.35,107.7,127.56,107,127.39Zm-15.52,6a3.36,3.36,0,0,0,.7-2.61,1.63,1.63,0,0,1,.34-.82c.8.28.88-.43,1.16-.84s.66-1,1-1.53l4.73-7.27c.2-.32.41-.63.61-.94l.28.16-1.74,3.13.26.15,1.55-2.34c.07-.1.16-.27.24-.27.87-.06,1.1-.8,1.46-1.36,1.56-2.47,3.1-5,4.64-7.44a6,6,0,0,0,.27-.56,2.11,2.11,0,0,0-2.1,1.13c-.51,1-1.15,2-1.74,2.94-.12.2-.27.39-.4.59l-.2-.1a10.07,10.07,0,0,1,.41-1c.49-.85,1-1.68,1.51-2.53a7,7,0,0,0,.4-1.11,4.79,4.79,0,0,0-1.41,0,2.62,2.62,0,0,0-1,.73c-.21.19-.35.44-.55.64l-4.6,4.46c-1.29,1.25-2.54,2.54-3.87,3.75-.95.86-1.5,1.77-1,3.06a.77.77,0,0,1,0,.37,7.55,7.55,0,0,0,.08,3.89,1.83,1.83,0,0,1-.8,2.12,44,44,0,0,0-.32-7.32l-.37,0C91.26,126.09,91.38,129.69,91.51,133.37Zm27.7,6.63a1.3,1.3,0,0,0,1.21-1.43c0-2,0-4,0-6,0-1-.28-1.21-1.22-.81-2.59,1.12-5.18,2.22-7.76,3.36-.17.08-.39.48-.33.59.82,1.46,1.68,2.9,2.53,4.34l.59,1c.23.4.36,1,.7,1.15,1,.43.69,1.75,1.58,2.2,0,1.39,1.09,2.3,1.66,3.44a9.3,9.3,0,0,0,.63,1,3.69,3.69,0,0,0,.22-.87c0-1.31-.07-2.63-.13-3.95a.81.81,0,0,0-.91-.84,5.44,5.44,0,0,1-1.46-.1,1.14,1.14,0,0,1-.69-.7c0-.22.22-.63.46-.79a8.42,8.42,0,0,1,1.71-.89,1.13,1.13,0,0,0,.78-1.25c-.09-2-.13-4-.18-6.05a5.74,5.74,0,0,1,.12-.8l.25,0ZM61.35,80.34l.08.22a3.42,3.42,0,0,0,.13-.34l1.18-3.64c.06-.19.13-.44,0-.57-.29-.46,0-.65.28-1,.95-1,1.95-2,2-3.53.05-1,0-2.06,0-3.09,0-.65-.25-.86-.87-.87-1.82,0-3.64-.07-5.45-.17-.68,0-.85.23-.83.85.07,3.25.11,6.51.18,9.76,0,.23.08.45.1.68a3,3,0,0,1,0,1c-.18.71.07,1.06.79,1,.28,0,.56-.1.84-.13Zm59.14-14.2v.19a4.11,4.11,0,0,1-.84.2,11,11,0,0,1-1.62,0c-.65,0-.86.22-.84.86.07,3,.11,6,.17,9,0,.31,0,.62,0,.93,0,.66.33.86.94.76.84-.14,1.09-.78,1.3-1.47,1-3.34,2-6.68,3.08-10,.19-.63.59-1.19.83-1.81a6.12,6.12,0,0,0,.48-1.69c.05-.49-2.18-1.89-2.68-1.8a8.27,8.27,0,0,1-1.22.13c-.82,0-1.64,0-2.47,0v.16l.87.11c-1.32.12-1.36.15-1.36,1.51,0,.15,0,.31,0,.46,0,1,.29,1.34,1.49,1.5-.06-.58-.14-1.13-.16-1.69a1.48,1.48,0,0,1,.19-.53c.14.16.37.29.4.46a6.72,6.72,0,0,1,.16,1.54c0,.58.07,1,.77.93C120.14,65.88,120.32,66.05,120.49,66.14Zm6.66,50.14.25,0v-.83q.06-3.77.13-7.53c0-1.49.1-3,.15-4.49,0-1,0-1-.93-.79a2.59,2.59,0,0,0-1.85,1.07,1.91,1.91,0,0,1-.66.53,10.77,10.77,0,0,0-3.35,3.5.88.88,0,0,0,.09,1.36,1.18,1.18,0,0,1,.27.91,2.79,2.79,0,0,0,.81,2.25c1,1.19,2,2.4,3,3.6.14.16.29.3.43.45l.17-.12c-.42-1-.85-2.1-1.26-3.15-.18-.43-.27-1,.33-1,.82,0,.76-.47.75-1-.05-2.15-.1-4.29-.13-6.44a3.66,3.66,0,0,1,.1-.73,1,1,0,0,1,.23.7c.06,2.43.09,4.86.17,7.28A9.33,9.33,0,0,0,127.15,116.28ZM87.4,146.47l-.3-.13a3.12,3.12,0,0,0-.32.4c-2.31,3.8-4.63,7.6-6.9,11.43a28.74,28.74,0,0,0-1.55,3.21.8.8,0,0,0,.21.66c1.23.09,2.46.13,3.69.16a1.23,1.23,0,0,0,1.35-1.11c.15-.62.46-1.2.64-1.82a16.3,16.3,0,0,1,1.51-4.1c.22-.37-.06-.6-.45-.72a2.58,2.58,0,0,1-.64-.41l.75-.38c.34-.17.87-.27,1-.54.45-1.06.78-2.18,1.14-3.29.15-.48.07-.86-.51-1s-.45-.44-.26-.82S87.18,147,87.4,146.47ZM170.62,92a5.35,5.35,0,0,0-.85,0,12.09,12.09,0,0,1-2,.33c-2.32-.06-4.64-.27-7-.32-2.72,0-5.43,0-8.15,0-.93,0-1,.14-.79,1.07a3,3,0,0,1,.07.85c0,.53.2.73.73.73,5.85.07,11.71.16,17.56.22,1.58,0,3.16,0,4.74-.06a1.9,1.9,0,0,0,.68-.07c.39-.16.45-.46.08-.69a1.69,1.69,0,0,0-.81-.18c-1.09,0-2.17,0-3.26,0C170.22,93.78,169.91,93.3,170.62,92Zm-67.09,39.23-.09,0c-.07-1.73-.09-3.46-.25-5.18a6.1,6.1,0,0,0-.68-1.93.74.74,0,0,0-.69-.2,6.89,6.89,0,0,0-2.14,1.61,34.81,34.81,0,0,0-4.08,7.45c-.26.76-.12,1,.65.92,1.08-.11,2.15-.26,3.22-.46.22,0,.41-.36.57-.58s.36-.54.53-.8c.19.25.5.48.56.76.16.89,1,.21,1.39.67,0,.07.4,0,.54-.12s0-.31,0-.47.09-.58.16-.87S103.44,131.44,103.53,131.18ZM59.87,63v.26a9.81,9.81,0,0,1-1.08.08c-.58,0-.87.19-.84.81a19.44,19.44,0,0,1,0,2c0,.57.24.8.78.79.72,0,1.44,0,2.15,0,1.21,0,2.42.16,3.63.16.2,0,.56-.38.58-.6a16.62,16.62,0,0,0,0-2.64c0-.22-.35-.5-.61-.59a3,3,0,0,0-1,0H61.31v-.29l2.48-.13c.34,0,.76.08,1-.09.73-.51.32-1.32.34-2,0-.33-.31-1-.51-1-1.15-.07-2.31,0-3.46,0-.47,0-1,.09-1.41.06a6.41,6.41,0,0,1-1.13-.21c-.49-.09-.65.17-.65.61,0,.62,0,1.24,0,1.86s.25.83.83.82C59.14,62.88,59.5,62.93,59.87,63Zm62.37,53.34,1.19.47.11-.17-2.07-1.5v3.67c.35,0,.63-.05.79,0a1,1,0,0,1,.47.63c0,.18-.2.56-.34.58-1.15.11-1.24,1.12-1.29,1.82-.13,1.93-.07,3.87,0,5.81,0,.25.51.73.68.69a9.76,9.76,0,0,0,2.68-1,2.78,2.78,0,0,1,2.44-.54,5.67,5.67,0,0,0-.6-1.5,6.87,6.87,0,0,1-.86-4.23c.11-1.6-.16-2.88-1.94-3.18A1.54,1.54,0,0,1,122.24,116.29Zm-11.86-8.54a8.75,8.75,0,0,0,4.22.39,9,9,0,0,0,2.66-.71c1.85-.85,2.26-2.57,2.38-4.4,0-.5-.09-.88-.7-.89s-.86.25-.84.85c0,.43,0,.86,0,1.29h-.23a1.43,1.43,0,0,1-.09-.27c-.26-1.84-.25-1.82-2.09-1.61-1.47.17-2.76.47-3.42,2.08A28.3,28.3,0,0,1,110.38,107.75Zm-45.62-19,.17-.24a11.59,11.59,0,0,0-2.11-1.93c-1.15-.63-1.52-.94-1.55-2.27,0-.67,0-1.33,0-2.06a3.81,3.81,0,0,1-.77,0,7.33,7.33,0,0,1-.69-.34c-1-.4-1.6,0-1.63,1.07,0,1.55-.09,3.1-.13,4.65,0,.76.14,1.56-.6,2.13-.05,0,0,.19,0,.29,3.38.46,6.8.48,7.59,0l-1.7-.82.06-.31Zm34.56,22a8.9,8.9,0,0,1-1.34.24c-1.82,0-3.64,0-5.46,0-.58,0-.65.29-.65.85,0,1,1,1.84.2,2.86-.09.1,0,.39.06.59a9.44,9.44,0,0,1,.17,1.3c0,.64-.1,1.28-.1,1.93a3.29,3.29,0,0,0,.23.84c.27-.17.62-.27.78-.5,1-1.48,2-3,3-4.49a4.49,4.49,0,0,1,.41-.46c.86-.91,1.72-1.82,2.57-2.74C99.27,111.07,99.27,111,99.32,110.7Zm-9.09-8.29-3,1.47a1,1,0,0,0-.24.26c-.2.26-.37.55-.59.79-.39.41-1,.41-1.43.65a11.3,11.3,0,0,0-2.25,1.86c-.34.32-.17.7.26.71.81,0,1.63-.07,2.45-.13a4,4,0,0,1,.59-.09c1.06.07,2.13.17,3.2.27.72.06,1-.27,1-1,0-1.26,0-2.51,0-3.77A8.38,8.38,0,0,0,90.23,102.41ZM72,63.43c-.22,0-.46,0-.68-.08a4.26,4.26,0,0,0-.67-.2,2,2,0,0,0-1,.12,1.19,1.19,0,0,1-1.23,0,2.47,2.47,0,0,0-1-.17c-.91,0-1.15.23-1.17,1.13,0,.67,0,1.35,0,2,0,.47.21.76.68.75,1.42,0,2.85,0,4.26-.16,1-.1,1.38-.82,1.14-1.79C72.2,64.58,72.12,64.05,72,63.43Zm-2.8,98.91,0-.13c.62,0,1.24,0,1.86,0s.89-.28.87-.9,0-1.14,0-1.7-.28-.89-.9-.83c-1.28.13-2.57.2-3.85.36a1.82,1.82,0,0,0-1.52,2.32.61.61,0,0,0,.38.39C67.1,162,68.15,162.19,69.21,162.34Zm-3-92.87v.77c0,1.08.14,1.13,1.19.83a12.51,12.51,0,0,1,3.16-.69c2.21,0,1.84-.25,1.9-2,0-.71-.23-1-.94-.92-1.14.07-2.27.09-3.41.11C66.06,67.57,66.25,67.55,66.23,69.47ZM56.48,110l-.38,0c0,.33-.1.66-.1,1,0,4.26,0,8.52-.14,12.78a101.58,101.58,0,0,0,.3,13.85,3.9,3.9,0,0,0,.12.46l.25,0C56.76,128.72,56.55,119.37,56.48,110ZM164.28,96.2V96A1.64,1.64,0,0,0,164,96c-2.74,0-5.47.09-8.21.12-.36,0-.72,0-1.08,0-.82,0-1.64-.12-2.46-.16-.55,0-.8.29-.77.82s-.19,1.26.65,1.35a8.55,8.55,0,0,0,2.26,0c2.75-.49,5.49-1,8.23-1.59ZM66.4,61h0c0,.26,0,.52,0,.77,0,.7.38,1.09,1,.88a3.53,3.53,0,0,1,2.46,0,.51.51,0,0,0,.43-.09,1.43,1.43,0,0,1,1.46-.15c.18.07.44-.09.66-.15-.09-.22-.12-.56-.28-.64a1.16,1.16,0,0,1-.61-1.15,1.7,1.7,0,0,0-.28-1c-.26-.26-.82-.57-1-.46a1.73,1.73,0,0,1-1.55,0c-.17-.07-.43,0-.65.08s-.52.21-.73.14c-.65-.18-.78.21-.84.68A9.73,9.73,0,0,0,66.4,61ZM83.18,105.4l-.79-.22-.07-.2c.39-.19.78-.38,1.16-.59a5.57,5.57,0,0,0,1.1-.67c.73-.64,1.42-1.33,2.13-2,.22-.21.46-.4.69-.6-1.77.23-9,5.41-9.5,6.66C80,108.69,81.85,107.38,83.18,105.4Zm37.23,19.23c0-1,0-2.07,0-3.1,0-.32-.32-.63-.49-.94a9,9,0,0,0-1.11.7c-.13.12-.11.44-.1.67,0,1.16,0,2.32,0,3.49,0,1,.05,2,.15,3,0,.28.34.52.52.78.23-.17.54-.29.65-.51a2.78,2.78,0,0,0,.34-1.16C120.45,126.59,120.42,125.61,120.41,124.63ZM119,93.88l-.14,0-3.46,5.83c.11.07.18.14.24.14,1.11,0,2.21.06,3.32,0,.1,0,.26-.45.26-.69s-.2-.74-.18-1.11c.07-.94.54-1.88-.08-2.8-.07-.1,0-.3,0-.46S119,94.19,119,93.88ZM90.26,137.15,90,137a5.07,5.07,0,0,0-.49.55c-.41.66-.82,1.32-1.19,2a21.29,21.29,0,0,1-1.5,2.65,38.58,38.58,0,0,0-3.25,5.62c-.6,1.18-1,2.46-1.47,3.69a.44.44,0,0,0,.36-.23q3.81-6.67,7.61-13.34A3,3,0,0,0,90.26,137.15ZM64.92,86.83a3.87,3.87,0,0,0,.1-.55q0-3.75,0-7.51c0-.2,0-.48-.11-.59s-.5-.37-.7-.32c-.59.15-1.12,1.68-.92,2.26a5.2,5.2,0,0,1,.21,1.32c0,.45,0,.92,0,1.37a9.33,9.33,0,0,0,.19,1.6A4.15,4.15,0,0,0,64.92,86.83ZM120.6,57.9V58c-1,0-2.06,0-3.09,0-.24,0-.45.36-.67.55a4.72,4.72,0,0,0,.66.68c.15.1.4,0,.61,0,1.89.06,3.83-.3,5.57.81a.68.68,0,0,0,.48,0,8.91,8.91,0,0,0,.14-1.78c0-.17-.49-.41-.76-.43C122.56,57.87,121.58,57.9,120.6,57.9ZM43.76,97.44a9.82,9.82,0,0,0,.15-1.1c0-1.32,0-2.64,0-4s0-1.28-1.3-1.3c-.75,0-1.13.27-1.09,1a15,15,0,0,0,.16,2A6.59,6.59,0,0,0,43.76,97.44ZM70.51,73l0,.11a6.31,6.31,0,0,0,1.23,0,1.18,1.18,0,0,0,.63-.44c-.17-.41-.4-1.09-.68-1.12a8.19,8.19,0,0,0-2.75.08,10.32,10.32,0,0,0-2.41,1.07c-.16.09-.14.5-.2.76a3.6,3.6,0,0,0,.73.06C68.23,73.38,69.37,73.2,70.51,73ZM56.1,108l.29,0a6.39,6.39,0,0,0,.11-.85q0-4.53,0-9.06c0-.49-.16-1-.15-1.45,0-.93.09-1.85.1-2.77a1.92,1.92,0,0,0-.28-.67l-.27.09c0,.25,0,.5,0,.75,0,1,.06,2,.06,3,0,3.38,0,6.75,0,10.13A3.62,3.62,0,0,0,56.1,108Zm57.66,33.77-.11.05a4.44,4.44,0,0,0,.22.61q2.86,5.54,5.74,11.06c.07.12.29.16.43.24.07-.15.22-.34.18-.45a20.62,20.62,0,0,0-1-2.36c-.81-1.46-1.69-2.89-2.55-4.33C115.68,145,114.72,143.37,113.76,141.76ZM94,118.53l.25.21c2.33-2.72,5.13-5,7.27-8a1.91,1.91,0,0,0-1.38.25c-1.12,1.23-2.15,2.53-3.22,3.81-.3.37-.61.74-.91,1.12Zm-18.24-7.12c-1.93.81-2,2.64-2.71,4a21.75,21.75,0,0,0,3.34-3.15c.55-.69.49-1.85,1.78-2a1.85,1.85,0,0,0-3,.82Zm44.27,39.49.26,0a4.72,4.72,0,0,0,.1-.64c0-2.17,0-4.35,0-6.52a1.12,1.12,0,0,0-.08-.52c-.1-.17-.27-.37-.43-.39s-.34.2-.42.35a1.77,1.77,0,0,0-.15.75c0,1.06.06,2.12.08,3.17a5.2,5.2,0,0,1-.06,1.77C119,149.81,119.64,150.28,120.05,150.9ZM56.38,138.82c-.68.52-.77,7.05-.07,7.8a12,12,0,0,0,.67-2.56,28.34,28.34,0,0,0-.36-3.53C56.55,140,56.47,139.44,56.38,138.82ZM76,62.89V63a3.2,3.2,0,0,0-.93,0c-.27.1-.66.34-.7.57a6.05,6.05,0,0,0,0,1.7c.07.5.44.76.89.44a7.65,7.65,0,0,0,1.51-1.38,3.51,3.51,0,0,0,.39-1.21Zm21.37,33.3L98,96c1.32-.45,2.62-.94,4-1.31s2.66-.57,4-.9c.25-.06.44-.36.65-.55l-.19-.3c-1.53.41-3.06.87-4.59,1.28A16.25,16.25,0,0,0,97.39,96.19Zm-1.08,31.42-.29-.17a1.58,1.58,0,0,0-.32.31c-1.37,2.13-2.75,4.26-4.09,6.41a3.39,3.39,0,0,0-.24,1.12A37.4,37.4,0,0,0,94,131.59C94.81,130.29,95.54,128.94,96.31,127.61Zm47.95,15.84-8.52-11.21C136.64,134.5,142.73,142.48,144.26,143.45ZM81.87,102.73l-.11-.19c-.93.21-1.87.4-2.78.67a1.18,1.18,0,0,0-.64.64c-.26.69-.42,1.42-.68,2.31Zm88.15-12c3.54-.12,9.87.5,16.19,0ZM105.85,65.46v.33a2.89,2.89,0,0,0,.5.08l7.1-.06c.67,0,1.34,0,2,0,.17,0,.33-.17.49-.26-.14-.16-.24-.39-.42-.47a1.4,1.4,0,0,0-.68,0c-.87.09-1.73.22-2.6.28-1.09.09-2.18.14-3.28.17S106.88,65.46,105.85,65.46Zm15.64,89.38-.2.11c-.12,1.22,2.34,5.25,3.56,5.57ZM90.3,140.91l-2.25,3.73c.78-.09,1.48.49,1.83-.34A5,5,0,0,0,90.3,140.91ZM43.87,87.84l-.3-.06a8.41,8.41,0,0,0-1.72,2.87,13.12,13.12,0,0,0,1.56,0,.63.63,0,0,0,.44-.43C43.89,89.42,43.87,88.63,43.87,87.84ZM87.6,139.16c1.11-.51,2.84-4,2.4-4.86C89.15,135.9,87.91,137.2,87.6,139.16Zm26.52-37.38c1,0,2,0,2.95,0,.2,0,.37-.43.55-.66-.21-.14-.43-.37-.65-.39-.57,0-1.14.06-1.71.06S114.29,101.1,114.12,101.78Zm-38.5,61.55-.21-.28c-.58.13-1.52.09-1.69.43a3.38,3.38,0,0,0-.14,2.89,7.79,7.79,0,0,0,.32-.76,6.27,6.27,0,0,1,.58-.87C74.85,164.26,75.24,163.8,75.62,163.33Zm-.6-1.66.19.27c.37-.08,1-.06,1.06-.26.44-1.11.75-2.27,1.11-3.41l-.26-.11Zm31.38-71v-.38l-10.76.38Zm19.87,31.58c.11,1,.18,1.74.29,2.51a.53.53,0,0,0,.33.35.5.5,0,0,0,.39-.28,2.31,2.31,0,0,0,0-.83,12.31,12.31,0,0,0-.28-1.59,3.08,3.08,0,0,0-.38-.68ZM118,82.8c.08-.5.12-.82.18-1.15s.1-.52.15-.78.14-.73.2-1.1l-1.26-.16C117.58,80.73,117,81.8,118,82.8ZM68.6,90v.13H71.8c.4,0,.8-.14.6-.62a.9.9,0,0,0-.8-.4C70.59,89.36,69.6,89.71,68.6,90Zm14-24.49.12.34a7.39,7.39,0,0,0,1.63-.52c.31-.17.46-.63.68-1s.45-.75.68-1.13l-.15-.1Zm8.59,55.41h.19v-8h-.19ZM75,62.34c.65.07,1.29.17,1.93.19.18,0,.36-.25.54-.39-.17-.14-.32-.35-.52-.42a12.8,12.8,0,0,0-1.35-.36l-.69-.17Zm30.74,45c2-1.37,3.74-3.35,3.83-4.3Zm-2.26.5.29.33c1.35-.5,2-1.76,2.92-2.72l-.16-.18ZM29.15,86.08l.08-.34a14.13,14.13,0,0,0-1.75-.64c-.2-.06-.48.17-.72.27.15.23.28.66.46.68A13.77,13.77,0,0,0,29.15,86.08Zm91.41,17.77.22,0,1.3-1.57-.13-.23c-.51.07-1.26,0-1.47.26S120.51,103.33,120.56,103.85Zm2.79-3.26c-.78,0-1.55,0-2.33,0-.1,0-.23.19-.27.31a.37.37,0,0,0,.13.32A2.56,2.56,0,0,0,123.35,100.59Zm-10.73.42c-.93-.31-1.8.63-2.12,2.15ZM76.15,66l0,.25c.5-.1,1.15,0,1.45-.35s0-.9,0-1.38h-.26Zm47.6,24.1v.14h5.32v-.14ZM89.17,146.23c-.08-.12-.19-.35-.23-.34-.22.07-.53.14-.62.31a3.25,3.25,0,0,0-.26,1c0,.13.08.27.13.4.15-.06.38-.08.44-.19A11.29,11.29,0,0,0,89.17,146.23ZM89,102.14l-.17-.27a4.48,4.48,0,0,0-2.4,1.65ZM115.6,60.52v-.19h-3.16v.19Zm-8.16,46.95.24.18,1.93-2.5-.23-.18Zm11.11-7c-.22.34-.45.53-.44.71s.31.47.42.44a2.71,2.71,0,0,0,.8-.43ZM65.18,75.5l-.28-.17c-.68.43-.7,1.2-.94,1.86l.18.09Zm46.63,57.91a8.68,8.68,0,0,0-1.33.46c-.08,0,0,.45.08.7l.26.09ZM95.87,135.2c-.3-.13-.47-.27-.58-.24s-.25.23-.38.35c.13.1.27.29.39.28S95.59,135.4,95.87,135.2Zm-52-48.87-.31-.21-.71,1.36.23.13Zm36.91,23.78v.14h1.59v-.14Z"/><path class="cls-1" d="M184.81,26.07a15.67,15.67,0,0,1,.18,1.8c0,5.14.06,10.29,0,15.43-.07,6.52-.24,13-.36,19.55,0,.76,0,1.52,0,2.29h.26c.15-1.7.36-3.38.44-5.08.23-4.75.34-9.51.64-14.26.25-4.07.7-8.13,1.08-12.2,0-.53.19-1,.29-1.58h.2a7,7,0,0,1,.06.91Q187.28,40,187,47c-.65,13.34-.61,26.68-.19,40,0,1,.23,2.09.3,3.14a3.1,3.1,0,0,1-.21.82,4.11,4.11,0,0,1-.67-.57,4.82,4.82,0,0,1-.43-.88l-.69.64a4.7,4.7,0,0,1-.69-1.41c-.24-3.43-.45-6.86-.58-10.29-.49-12.67-.11-25.34.22-38,.11-4.32.25-8.63.39-12.95,0-.49.12-1,.17-1.48Zm.71,62.13.21,0c-.1-2.63-.21-5.27-.31-7.9C185.44,82.92,184.91,85.57,185.52,88.2Z"/><path class="cls-1" d="M30.38,128.84c1.18-1.18,2.3-1.29,3.25-.53.87-.42,1.59-.75,2.29-1.12a1.25,1.25,0,0,0,.37-.47c.05-.07,0-.22,0-.3a11,11,0,0,1,.69-1.37,1.38,1.38,0,0,1,.73.34,1.31,1.31,0,0,1,.12,1.65,5.64,5.64,0,0,1-.57.65,1.12,1.12,0,0,0,1.47.33c.53-.21,1-.51,1-1.24a3.1,3.1,0,0,1,.22-1.27c.08-.21.38-.34.58-.5a3,3,0,0,1,.31.72,6.19,6.19,0,0,1-.09,1.13c.45-1,1-1.06,1.78-.37-.08-.64-.11-1.06-.18-1.47-.27-1.53-.55-3-.82-4.58a.49.49,0,0,1,0-.23c.07-.22.15-.44.23-.66.14.18.38.35.42.55.29,1.47.55,2.94.82,4.42a5.88,5.88,0,0,0,.33,1.33c.14-1.25.85-2.41.3-3.73a3,3,0,0,1,.45-2.59c0-.1.32-.22.36-.18a.6.6,0,0,1,.23.43,17.7,17.7,0,0,1-.1,1.78c-.06.49,0,.75.61.83,1.56.24,1.87.84,1.26,2.3a7.26,7.26,0,0,1-3.09,3.49c-2.84,1.64-5.75,3.16-8.63,4.74-.29.16-.56.36-.84.54l.13.33,5.16-1.22.07.25c-1.11.36-2.23.73-3.35,1.07-.86.27-1.73.5-2.6.74a1.06,1.06,0,0,1-1.35-.46c-.43-.73-.83-1.48-1.24-2.23-.12-.21-.22-.44-.33-.66l-.26,0a4,4,0,0,0,.09,1.26,1.43,1.43,0,0,1-.46,1.67c-.11.1-.35.19-.46.13s-.15-.29-.16-.45a2,2,0,0,1,.12-.52c.17-.59,0-.9-.66-.88a1.59,1.59,0,0,1-.38-.06c-.88-.22-1-.74-.41-1.38a6.33,6.33,0,0,1,.57-.45c0,.2,0,.29,0,.38-.06.28-.14.55-.21.83a3.39,3.39,0,0,0,1.12.17c.17,0,.39-.47.39-.72a14.74,14.74,0,0,0-.17-2.66c-.29-1.44-.74-2.85-1-4.29a6.56,6.56,0,0,1-.08-1.93c0-.33.35-.63.53-.94a4,4,0,0,1,.88.73,2.35,2.35,0,0,1,.36,1.09c.15,1.49.25,3,.36,4.48C30.4,128.05,30.38,128.33,30.38,128.84Zm11.43-2.12c-1.1.67-2,1.32-3,1.81a1.54,1.54,0,0,1-1.92-.41,1.17,1.17,0,0,0-1.4-.29,1.33,1.33,0,0,0-1.06,1.11c0,.35,0,.72-.06,1.08a2.66,2.66,0,0,1-.27.63c-.12-.2-.25-.39-.35-.6s0-.2,0-.3a1.43,1.43,0,0,0-2-1.26c-.76.33-.83.72-.28,1.35.75.85,1.45,1.74,2.21,2.58a.67.67,0,0,0,.64.1c2.94-1.58,5.91-3.1,8.76-4.82a11.44,11.44,0,0,0,2.53-2.57,3,3,0,0,0,.54-1.35c.13-.68-.4-.8-.91-.87s-.87-.13-.94.55c-.1,1-.29,1.89-.45,2.84-.1.62-.24,1.16-1.08.72A4.65,4.65,0,0,0,41.81,126.72ZM30.5,129.54l-.26.15c.49,1.11,1,2.25,1.5,3.35.34.69.59.68,1.18.21s.21-.73,0-1C32.12,131.32,31.3,130.44,30.5,129.54Zm-.74-1.87a9.84,9.84,0,0,0-.83-5.51C28.53,124.1,29.16,125.88,29.76,127.67Zm7.19-2v1.4C37.67,126.52,37.69,126.26,37,125.65Z"/><path class="cls-1" d="M131.91,27.06c.45-1.16.89-2.31,1.33-3.47l-.24-.17-1.4,1c.37-.82.61-1.4,1.41-1.55.21,0,.35-.45.52-.7s.31-.48.46-.72c.18.22.46.42.54.68.26.88.46,1.79.72,2.85a3.73,3.73,0,0,0,.27-.54c.1-.48.15-1,.29-1.44.23-.76.57-.86,1.28-.55a7.61,7.61,0,0,0,1.33.33c-.07-.43-.13-.87-.21-1.3-.26-1.47-.54-2.94-.76-4.42,0-.21.21-.46.32-.7.23.15.56.24.65.45a9.29,9.29,0,0,1,1,4.72c0,.15-.11.33-.07.45a10.3,10.3,0,0,0,.47.94c.23-.21.6-.37.66-.62.22-.92.33-1.87.5-2.81a6,6,0,0,1,.27-.92,3.79,3.79,0,0,1,1,.35c.49.37.92.81,1.43,1.27.34-.5.64-1,1-1.42a1.35,1.35,0,0,1,1.24-.51,6,6,0,0,0,2.61-.72c.82-.45,1.53-.88,2.48-.25.14-.38.22-.7.36-1a2,2,0,0,1,.66-.75,2.25,2.25,0,0,1,0,.26c-.11,1-.22,2-.36,3a3.88,3.88,0,0,1-.29.78,5,5,0,0,1-.35-.69c-.08-.21,0-.47-.14-.68a1,1,0,0,0-1.29-.67c-.76.25-1.11.75-1,1.36.19.89-.11,1.88-.64,2.08s-1.39-.3-1.85-1.21c-.17-.34-.37-.66-.61-1.09a4.73,4.73,0,0,0-1.51,2.64,9.25,9.25,0,0,1-.48,1.86c-.06.18-.36.28-.56.42a2.75,2.75,0,0,1-.11-.68,3.47,3.47,0,0,1,.2-.75c.44-1.45.11-2.15-1.43-2.93-.07.55-.11,1.07-.21,1.58a11.76,11.76,0,0,1-.5,1.94c-.3.75-.76.87-1.5.57-.15-.06-.39-.16-.49-.09-.66.46-1.25.15-1.8-.18s-.75-.12-.85.4a15.43,15.43,0,0,1-.34,1.67c-.07.23-.34.41-.52.61-.21-.2-.51-.37-.6-.61a8.94,8.94,0,0,1-.31-1.36,3,3,0,0,0-.36-1A7.09,7.09,0,0,1,131.85,28c.21,1.36.46,2.93.71,4.51l-.31.06q-1.06-5-2.12-9.88h-.3a3.36,3.36,0,0,1-.24.58,13.08,13.08,0,0,1-1.75,2.59c-1.28,1.19-2.8.59-3.07-1.14a3.45,3.45,0,0,1,.15-1.66c.14-.36.65-.84,1-.82a2,2,0,0,1,1.3.75c.19.25,0,.8-.06,1.2a.8.8,0,0,1-.61.47c.09-.28.19-.56.28-.84a.74.74,0,0,0-.61-1c-.24,0-.64.29-.83.56a1.64,1.64,0,0,0-.14.9,1.59,1.59,0,0,0,.87,1.61,1.55,1.55,0,0,0,1.67-.54,5.14,5.14,0,0,0,1.57-3.21,3.09,3.09,0,0,1,.36-.76c.2.21.5.39.58.64.44,1.46.83,2.93,1.24,4.39.07.24.13.48.19.72Zm16.41-7.59c-.3-.32-.56-.75-.71-.72a4.53,4.53,0,0,0-1.13.59l1.05,1.12Zm-10-1.91-.34.07a12.15,12.15,0,0,0,.74,3.58l.33-.07C138.81,20,138.56,18.76,138.32,17.56Z"/><path class="cls-1" d="M80,55.31c-.12-1.14-.3-2.27-.36-3.41-.37-7.56-.82-15.12-1-22.69-.16-5.91,0-11.83,0-17.75,0-.1,0-.23,0-.3.16-.28.36-.55.54-.82.15.27.33.53.46.81a1,1,0,0,1,0,.38l.6,40.55c0,1.08,0,2.15,0,3.22Z"/><path class="cls-1" d="M16.92,136.83a11.19,11.19,0,0,1,.7,2.35,1.83,1.83,0,0,1-.68,1.34,1.05,1.05,0,0,1-1.44-.38,19.46,19.46,0,0,1-1.09-1.82,2.46,2.46,0,0,0-.31-.58c-.53-.44-.55-.61.08-.93a1.92,1.92,0,0,1,1-.21c1.69.19,2.58-.91,3.44-2.08a5.54,5.54,0,0,1,.42-.65c.5-.54.95-.47,1.22.21.39,1,.72,1.94,1.09,2.9a1.81,1.81,0,0,0,.41.66c.34-1.16,1.26-2.15.63-3.49-.34-.72-.07-1,.69-.85a1.39,1.39,0,0,0,.86-.22c.5-.3,1-.21,1,.31a14.79,14.79,0,0,1,0,3.12c-.06.54-.63.62-1.09.22-.27-.23-.49-.51-.85-.88-.43,1.43-1.16,2.58-.55,4.09,1.43,3.58,2.74,7.2,4,10.82a20.73,20.73,0,0,1,.8,3,5.54,5.54,0,0,1,.09,1.77,1.51,1.51,0,0,1-2.39,1.2A6,6,0,0,1,22.54,154a18.53,18.53,0,0,1-1.76-6.23,22.26,22.26,0,0,1,.53-8.09A3.6,3.6,0,0,0,20.7,137c-.39.81-.68,1.69-1.67,1.4s-.77-1.43-1-2.37Zm4.93,3.23a2.5,2.5,0,0,0-.21.46,21,21,0,0,0,1.12,12.76,5.85,5.85,0,0,0,2.15,2.78c.37.23,1,.46,1.31.29a2,2,0,0,0,.69-1.33,4.72,4.72,0,0,0-.28-1.9c-1.49-4.27-3-8.51-4.56-12.76A1.29,1.29,0,0,0,21.85,140.06Zm-4.57-.89a8.85,8.85,0,0,0-.53-1.26c-.39-.64-.85-.71-1.59-.3s-.22.79-.09,1.14a2.57,2.57,0,0,0,.73,1,1.15,1.15,0,0,0,.93.3C17,139.93,17.1,139.48,17.28,139.17Zm2.28-4.85a3.34,3.34,0,0,0-.85,2.88c0,.27.35.49.53.74.25-.22.61-.39.72-.66A3.46,3.46,0,0,0,19.56,134.32Zm4.81,2.05a2.93,2.93,0,0,0-.09-2.84A1.56,1.56,0,0,0,24.37,136.37Z"/><path class="cls-1" d="M23.46,24.46c-.18,1.05-.29,1.95-.52,2.82-.09.35-.46.64-.71,1a3.53,3.53,0,0,1-.73-1,19.69,19.69,0,0,1-.37-2.06,4.68,4.68,0,0,0-.24-.72l-.23,0c0,.29-.1.58-.11.86-.07,1.34-.12,2.68-.19,4a2,2,0,0,1-.09.69,6.48,6.48,0,0,1-.55.85c-.27-.24-.64-.42-.78-.72-.28-.58-.41-1.23-.65-1.83a7.38,7.38,0,0,0-.59-1l-.24,0-.15.85c-.17,1-.3,1.94-.53,2.89a3.94,3.94,0,0,1-.67,1.38,1.73,1.73,0,0,1-2.95,0A17.56,17.56,0,0,1,12,30.31c-.73.65-1.47,1.28-2.16,2-.11.11-.05.49,0,.7.3.78.65,1.55,1,2.33l-.18.13a3.94,3.94,0,0,1-.51-.65,12.39,12.39,0,0,1-.7-1.47c-.21-.54-.46-1-1.24-.88.75-.41.5-.91.27-1.44-1-2.33-2-4.68-2.92-7a3.58,3.58,0,0,1-.09-.35l.21-.13a6.62,6.62,0,0,1,.74,1.1c.84,2,1.64,4,2.46,6,.07.17.13.34.2.5.32.73.43.77,1,.23a6.24,6.24,0,0,0,1.19-1.22,5.21,5.21,0,0,0,.58-1.53c.16-.59.2-1.21.36-1.8a.59.59,0,0,1,.51-.35.6.6,0,0,1,.37.48,7.71,7.71,0,0,1-.33,1.87A3.82,3.82,0,0,0,14,32.6a1.21,1.21,0,0,0,1.71-.38c.95-1.41,1-3,1.14-4.79-.51.18-.86.32-1.21.43-.71.22-1.15-.08-1.11-.82A3.47,3.47,0,0,1,16,24.34c.49-.36.88-.24,1.1.32a1.86,1.86,0,0,1,.17.6,2.21,2.21,0,0,0,1,2c.4.27.53,1,.74,1.49s.33,1,.51,1.52a1.54,1.54,0,0,0,0-2.05,4,4,0,0,1-1.31-2.46l1.51,1.88.21,0c.05-.36.13-.72.15-1.09,0-.64,0-1.29.07-1.93.05-.47.26-.76.88-.74.38,0,.77-.35,1.22-.57-.05.16-.08.32-.14.47s-.11.13-.1.2c0,1.2-.45,2.43.43,3.61.13-.66.27-1.33.38-2,.07-.35,0-.73.14-1.07a4.16,4.16,0,0,1,.41-.78l.73.48a.21.21,0,0,1,0,.06c.79,1.05,1,1.11,2.1.71-.05.84-.86,1.09-1.67.48A12.25,12.25,0,0,1,23.46,24.46Zm-6.82.26A2.66,2.66,0,0,0,15,27a.49.49,0,0,0,.18.31c.35.21,1.65-.53,1.63-.95A16,16,0,0,0,16.64,24.72Z"/><path class="cls-1" d="M172.54,144.71a9.11,9.11,0,0,1-.38-1.3c-.33-2.44-.62-4.87-.94-7.31a7.73,7.73,0,0,0-.3-1c0-.12-.14-.24-.11-.35.18-.92.37-1.85.6-2.76.15-.59.48-1.09,1.15-1.07a1.69,1.69,0,0,1,1.08.43c.43.5.2,1.07-.14,1.57-.06.08-.1.17,0,.39.57-.44,1.15-.87,1.69-1.35a5.71,5.71,0,0,0,1-1.09c.44-.65,1-.4,1.37-.1.19.14.18.61.19.93s-.14.57-.08.83a2.15,2.15,0,0,0,.44.71c.25-.18.61-.3.72-.54.36-.79.65-1.61.93-2.43a2.63,2.63,0,0,0,.1-1c-.1-1.65-.23-3.3-.33-4.95a2.2,2.2,0,0,1,0-.77c.12-.43.4-.52.74-.21a1.08,1.08,0,0,1,.26.38c1.11,2.73,1.71,5.5,0,8.18a6.55,6.55,0,0,1-2.17,1.78c-.27.16-.81-.11-1.3-.2-.39.3-.83.89-1.39,1-.89.21-.85-.72-1.07-1.34-1,.59-1.89,1.13-2.77,1.74-.17.13-.2.57-.17.84q.51,4.08,1,8.15c0,.25,0,.49.06.73Zm8.25-14.94c.57-1.27.12-4.49-.84-5.53.14,1.78.26,3.39.42,5C180.39,129.42,180.62,129.57,180.79,129.77Zm-3.7,1.25a7.23,7.23,0,0,0-1,1,7.08,7.08,0,0,0-.73,1.39c-.06.14.11.37.17.55.2-.07.45-.08.59-.22A3.71,3.71,0,0,0,177.09,131Zm-5.4,2.64.26.18a11.2,11.2,0,0,0,1.19-1.39c.14-.22,0-.63,0-.95-.34.07-.8,0-1,.25A1.81,1.81,0,0,0,171.69,133.66Z"/><path class="cls-1" d="M148.93,7.77c.07-.44.14-.89.22-1.33a3.36,3.36,0,0,1,.23-1A1,1,0,0,1,150,5c.14,0,.47.34.5.56.15.89.21,1.8.3,2.69l-.36.05-.43-2.51-.15,0a2.56,2.56,0,0,0-.19.5c-.16,1-.28,2.1-.47,3.14a3.48,3.48,0,0,1-.39.83,7.38,7.38,0,0,1-.3-.78c-.2-.75-.38-1.51-.56-2.26l-.23,0a13.88,13.88,0,0,1-.45,1.93,4.19,4.19,0,0,1-.81,1,10.11,10.11,0,0,1-.9-.95,2.55,2.55,0,0,1-.27-.7l-.21,0c-.12.52-.23,1.05-.34,1.57a3.71,3.71,0,0,1-.18.83c-.11.2-.34.45-.53.47a.78.78,0,0,1-.61-.35c-.31-.53-.53-1.1-.87-1.84-.24.58-.39,1-.59,1.45-.37.75-.82,1.38-1.84,1.19-.19,0-.44.2-.63.34-.6.44-1.15,1-1.79,1.35s-1.16.19-1.56-.47c-.83-1.34-.67-4.82.27-6,.35-.46.71-.41,1,.14a2.6,2.6,0,0,1-.59,2.78,2.25,2.25,0,0,0-.23,2.87.62.62,0,0,0,1,.23,11.24,11.24,0,0,0,1.71-1.44,1.52,1.52,0,0,0,.17-1.07A4.55,4.55,0,0,1,140,7.19a2,2,0,0,1,1.18-.8c.55-.14.84.3,1,.81.43,1,.94,2,1.42,3,.08.15.19.28.4.58.11-.42.18-.68.24-.93.16-.71.29-1.42.49-2.12a5.79,5.79,0,0,1,.46-1c.17.35.35.68.49,1s.19.7.31,1a5.67,5.67,0,0,0,.33.65h.26c.15-.52.31-1,.43-1.56s.14-.93.28-1.37c.06-.21.3-.36.47-.53.16.15.38.27.47.45.19.41.32.84.47,1.26ZM140,10.14l.26.12c.44-.83.91-1.64,1.29-2.49.1-.21-.1-.57-.16-.86-.29.11-.71.12-.85.33A3.67,3.67,0,0,0,140,10.14Zm1.82-1.58-1.51,2.61C141.32,11.06,141.94,10,141.83,8.56Zm-5.71,1,.24,0a1.75,1.75,0,0,0,.37-2.44Z"/><path class="cls-1" d="M20.87,44.48a9,9,0,0,0-.92,1c-1.2,2.07-1.49,2.12-3.2.45a2.27,2.27,0,0,0-.33-.22c0,.64.14,1.16.13,1.69a.81.81,0,0,1-.32.63.93.93,0,0,1-.7-.16,4.6,4.6,0,0,1-1.26-4,6.15,6.15,0,0,1,1-1.33c.24.41.38.72.58,1A29,29,0,0,0,18,46.42c.45.49.87,0,1.1-.53-.95-.67-.71-1.61-.64-2.54a4,4,0,0,0-.2-1.54c-.44-1.4-1-2.77-1.42-4.17a2.78,2.78,0,0,1-.11-1,.84.84,0,0,1,1.3-.78,2.61,2.61,0,0,1,.81.58,8.78,8.78,0,0,1,2.31,6.16,10.05,10.05,0,0,1-.2,1.07C20.91,44,20.88,44.35,20.87,44.48Zm-2-2.72c1.12-1.08,1.12-1.08,1.72.15a7.69,7.69,0,0,0-2.46-5.42c-.14-.13-.52-.22-.62-.13a.85.85,0,0,0-.23.66A14.51,14.51,0,0,0,18.87,41.76Zm-3.82,2c-.75.73-.1,3.26.94,3.61A6.35,6.35,0,0,0,15.05,43.79Zm4-.39a1.72,1.72,0,0,0,.11,1.79C19.89,44.39,19.87,44.07,19.08,43.4Zm.82-1.69c-.68.69-.67.91,0,1.39Z"/><path class="cls-1" d="M15.81,85.22c-1.5.91-1.21,2.28-1,3.61a2.22,2.22,0,0,0,.24.65c.43.75,1.07.83,1.49.09.6-1.08,1.08-2.23,1.57-3.36.34-.8.4-.84,1-.26,2.8-1,2.83-1,4,.46.22-.29.41-.6.64-.86.63-.67,1.39-.55,1.7.3a5.47,5.47,0,0,1,.19,3l-.26,0c-.05-.28-.12-.55-.15-.83a18.29,18.29,0,0,0-.21-1.83c-.15-.64-.66-.74-1-.17a15.76,15.76,0,0,0-.89,2.29,7.48,7.48,0,0,1-.18.82c-.08.21-.3.35-.46.52a2.47,2.47,0,0,1-.16-.65,16.22,16.22,0,0,0,.1-2.3c-.1-.94-.72-1.18-1.65-.78a3.3,3.3,0,0,1-.13,3.77,1.38,1.38,0,0,1-1.46.81c-.65-.13-.76-.71-.87-1.24s-.12-.8-.2-1.39c-.38.7-.65,1.25-1,1.76s-.69,1-1.39,1a1.49,1.49,0,0,1-1.32-1.34,15.72,15.72,0,0,1-.1-3C14.32,85.66,14.8,85.38,15.81,85.22Zm2.83,2.94a8.23,8.23,0,0,0,.19,1.21c.07.24.28.57.47.61a1,1,0,0,0,.71-.36,3.08,3.08,0,0,0,.72-2.37c-.05-.63-.37-.84-1-.68C18.83,86.8,18.69,87,18.64,88.16Z"/><path class="cls-1" d="M177.78,147.5l1.91.79a1.57,1.57,0,0,1-1.72-.14.9.9,0,0,0-1.28.11c-.9.74-1.83,1.44-2.77,2.13a2.94,2.94,0,0,1-.68.28c-.05-.23-.11-.46-.14-.69-.12-.9-.21-1.79-.35-2.68a5.33,5.33,0,0,0-.5-1c-.18.46-.29.7-.37,1-.14.47-.23.95-.39,1.41-.24.73-.55,1.39-1.52,1.11a12.13,12.13,0,0,1-.38,1.39.85.85,0,0,1-1.49.33,3,3,0,0,1-.84-2.63c0-.19.35-.43.58-.52.48-.17,1.12,0,1.36-.64.19.12.43.2.54.37.24.39.42.82.63,1.24l.28,0c.16-.38.34-.77.49-1.16s.13-.55.21-.82c.16-.55.11-1.34.89-1.35s.86.76,1,1.3c.22.81.33,1.65.51,2.64,1-.8,2-1.52,2.9-2.29.09-.08,0-.42,0-.6-.17-.37-.44-.7-.6-1.07a1.3,1.3,0,0,1,.22-1.64,1.66,1.66,0,0,1,1.26-.26,1.36,1.36,0,0,1,1.07,1.44,5.31,5.31,0,0,1-.48,1.44A6.66,6.66,0,0,1,177.78,147.5Zm-8.4,2.28a2.11,2.11,0,0,0-.06-.63,5.79,5.79,0,0,0-.5-.72c-.36.28-1,.52-1,.84a3.49,3.49,0,0,0,.42,1.58c.07.17.4.39.53.34a.89.89,0,0,0,.45-.53A5,5,0,0,0,169.38,149.78Zm7.81-2.8c1-.79,1.16-1.64.58-2.17a1.21,1.21,0,0,0-1-.26c-.2.06-.41.62-.34.88A9.48,9.48,0,0,0,177.19,147Z"/><path class="cls-1" d="M168.79,134.89l-.31-.67c-.88.94-1.79,1.77-3.17.81a11.72,11.72,0,0,1-.57,1.51,7.44,7.44,0,0,1-1.12,1.73c-.59.59-1.31.35-1.54-.47a5.81,5.81,0,0,1,.95-5,.53.53,0,0,1,.44-.19.43.43,0,0,1,.2.36,4.49,4.49,0,0,1-.61,1.58c-.54.65-.92,2.51-.42,3.17a.75.75,0,0,0,.74.05,4.17,4.17,0,0,0,1-4.06,8.74,8.74,0,0,1-.35-5.62c.13-.56.38-1.16,1.09-1.12a1,1,0,0,1,.94,1.23c-.09,1.74-.31,3.48-.44,5.23a1.86,1.86,0,0,0,.17,1.19,1,1,0,0,0,1.47,0c.34-.27.6-.64.94-.91a3.4,3.4,0,0,1,.72-.34,2.71,2.71,0,0,1,.19.7,3.71,3.71,0,0,1-.13.8Zm-3.91-1.38h.2a17.94,17.94,0,0,0,.49-5.22c0-.25-.3-.49-.46-.73-.2.23-.51.44-.58.71a8.64,8.64,0,0,0,.09,4.73A3.16,3.16,0,0,0,164.88,133.51Z"/><path class="cls-1" d="M161.06,124c.4-.89.78-1.79,1.2-2.67a3.24,3.24,0,0,1,.52-.6,2,2,0,0,1,.26.79,11,11,0,0,1-.3,2.06c-.35,1.27-.67,1.43-2,1.15l-.06.79c-.35-1.52-1.55-2.27-2.81-3l.18-.26,1.7.68c-1.37-6.61-1.8-13.24-3.34-19.69l.18-.11a4.27,4.27,0,0,1,.56,1c.3,1.41.56,2.84.79,4.26.78,4.8,1.54,9.6,2.33,14.39a5.51,5.51,0,0,0,.53,1.23Zm.35.19.26.18c.59-.37.61-1,.61-1.71Z"/><path class="cls-1" d="M155.05,136.26l-1,1.13-.15-.08a5.42,5.42,0,0,1,.44-1,6.25,6.25,0,0,0,.89-3.16c.12-1.52.31-3,.5-4.55a2.37,2.37,0,0,1,.4-.67c.15.21.4.41.44.64a9.25,9.25,0,0,1-.48,4.81,13.8,13.8,0,0,0-.37,5,.59.59,0,0,0,0,.23s.07.06.19.17c.2-.95.34-1.86.57-2.74a10.78,10.78,0,0,1,.71-2.12c.36-.73,1-.71,1.31,0a8.5,8.5,0,0,1,.83,3.07l-.29.1c-.34-1-.68-2.07-1-3.1l-.28,0a7.81,7.81,0,0,0-.54,1.27c-.33,1.49-.6,3-.93,4.48a3.58,3.58,0,0,1-.43.82,2.8,2.8,0,0,1-.5-.86c-.12-.81-.15-1.64-.21-2.47C155.11,137,155.09,136.7,155.05,136.26Z"/><path class="cls-1" d="M32.53,20.46h-.72c-.72,2.27-.72,2.27-2.69,1.5-.06.39-.12.75-.2,1.12a3.61,3.61,0,0,1-.26,1c-.24.45-.63.5-1,.12a2.07,2.07,0,0,1,.71-3.39c-.67,1-1.24,2-.13,3.17.11-.65.19-1.13.28-1.62.2-1.12.54-1.28,1.46-.66.67.46,1,.3,1.17-.51a1.72,1.72,0,0,0-.6-1.65c-2.08-1.95-3.16-4.5-4.2-7.07-.08-.2.05-.47.09-.71a2.14,2.14,0,0,1,.71.27,4.74,4.74,0,0,1,.79,1c1.14,2,2.23,4,3.4,6A9.05,9.05,0,0,0,32.53,20.46Zm-5.11-7.29-.23.16a21.89,21.89,0,0,0,3,5.24l.26-.15Z"/><path class="cls-1" d="M121.1,24.52l2.71.64,0,.32-1.82-.26c-1.73-.25-1.73-.25-1.73,1.47,0,.62,0,1.24,0,1.85a2.83,2.83,0,0,1-.33.79c-.19-.21-.46-.4-.54-.64a16.74,16.74,0,0,1-.41-1.73c-.37-1.69-.76-3.37-1.1-5.06a4.31,4.31,0,0,1,.12-1.17,3.54,3.54,0,0,1,.52.92c.31,1.49.56,3,.84,4.49.06.32.13.63.19.95l.21,0a7,7,0,0,0,0-1.12,32,32,0,0,1,0-4.38,3.62,3.62,0,0,1,.39-1.63,1.16,1.16,0,0,1,.88-.58,1.28,1.28,0,0,1,.88.7,4,4,0,0,1-.4,3.77c-.12.18-.25.34-.36.51A.74.74,0,0,0,121.1,24.52Zm-.94-.42a2.93,2.93,0,0,0,1.37-3.53,2.78,2.78,0,0,0-.51-.7c-.22.23-.59.43-.62.68C120.27,21.73,120.23,22.92,120.16,24.1Z"/><path class="cls-1" d="M35.66,98.2a1.8,1.8,0,0,1-1.92,1c-.74-.14-1-.74-1.05-1.38a4.14,4.14,0,0,1-.08-.92c.07-.76-.27-1-1-1-.5,0-.64.23-.79.64a17,17,0,0,1-1.15,2.7c-.74,1.24-1.84,1.18-2.6,0a4.37,4.37,0,0,1,.13-4,.83.83,0,0,1,1.43-.09,2.82,2.82,0,0,1,.52,1c.31,1.22-.14,1.71-1.38,1.59-.15,0-.3,0-.45,0a1.58,1.58,0,0,0,.8,1.81c.24.07.73,0,.81-.18.55-1.12,1-2.28,1.5-3.44.05-.15-.08-.4-.18-.57A2.16,2.16,0,0,1,30.41,93a.67.67,0,0,1,.54-.29c.12,0,.33.28.33.44a7.94,7.94,0,0,1-.06,1.54c-.07.48.08.64.56.68,1.18.08,1.31.24,1.34,1.41V97c0,1.68.75,2.08,2,1.31A2.41,2.41,0,0,1,35.66,98.2Zm-8.61-.82c.57-.08.9-.1,1.22-.17.53-.13.51-.59.38-.93a4.06,4.06,0,0,0-.7-1s-.31.12-.35.24C27.41,96.07,27.26,96.64,27.05,97.38Z"/><path class="cls-1" d="M3.86,39.09c-.07-.55-.15-1.09-.22-1.64-.13-1.11-.27-2.21-.37-3.32a2,2,0,0,1,.2-.68c.2.13.46.22.58.4.65.94,1.27,1.89,1.9,2.84a.9.9,0,0,0,.49.41c-.07-.76-.16-1.51-.19-2.27s0-1.45,0-2.17a.69.69,0,0,1,.3-.48c.09-.06.38,0,.46.16a8.4,8.4,0,0,1,1.35,3.13l-.21.11L7,33.35l-.17,0a4.31,4.31,0,0,0,0,.71c.13,1.36.29,2.72.42,4.08a2,2,0,0,1-.14.62c-.18-.1-.44-.16-.55-.32-.66-1-1.29-2.06-1.94-3.08-.14-.23-.32-.43-.48-.65l-.21.08.33,2.71c.1.79.23,1.58.3,2.38a1.83,1.83,0,0,1-.23.68c-.2-.13-.49-.22-.58-.4C3,38.8,2.28,37.41,1.62,36c-.06-.13.07-.34.11-.52.15.11.36.2.43.35.36.82.68,1.67,1,2.51a7.6,7.6,0,0,0,.42.8Z"/><path class="cls-1" d="M27.9,34.94c-.32.19-.6.39-.91.55a.68.68,0,0,1-.49.07c-.11-.06-.17-.31-.16-.46a2.22,2.22,0,0,1,1.47-1.66.5.5,0,0,1,.3,0c.79.5,1.61,1,2.34,1.53s1,.65,1.36-.31c.23-.56.45-1.12.68-1.69l.32.12c-.31.85-.56,1.72-1,2.53-.24.51-.76.51-1.19.17s-.8-.73-1.23-1.06a.8.8,0,0,0-.61-.2c-.14.05-.22.36-.25.57-.16,1-.21,2-.46,2.9-.37,1.39-.92,1.59-2.22,1a14.18,14.18,0,0,1-.3,1.88c-.09.32-.43.58-.66.86a3.8,3.8,0,0,1-.81-.73,2.37,2.37,0,0,1,.29-2.76c.1,1.07-.5,2.09.58,2.93a5.84,5.84,0,0,0,.26-1.37c0-.85-.16-1.69-.21-2.54a2,2,0,0,1,.16-.67,3.3,3.3,0,0,1,.47.52c.28.49.47,1,.79,1.49s.6.34.88,0A6.08,6.08,0,0,0,27.9,34.94Z"/><path class="cls-1" d="M131.3,130.18a34.71,34.71,0,0,1,5.51,8c-.24-.2-.49-.4-.71-.62-.84-.9-1.63-.85-2.29.17-.05.08-.16.24-.18.22-.7-.32-1,.42-1.54.53a1.24,1.24,0,0,1-.89-.27,3.16,3.16,0,0,1-.67-.93c-.08-.15-.09-.49,0-.56a1.28,1.28,0,0,1,.81-.32c.43.06.78.19,1-.33,0-.08.4,0,.61,0a4,4,0,0,0,.81.15c.66-.1.79-.47.42-1q-1.4-2-2.78-4.1a6.17,6.17,0,0,1-.38-.72Z"/><path class="cls-1" d="M124.68,11c-.36-.11-.94-.12-1-.35a2.32,2.32,0,0,1-.11-1.45c.17-.62.78-.71,1.19-.2a1.57,1.57,0,0,0,1,.61c.26,0,.53.54.6.88a17.59,17.59,0,0,1,.22,2.06l.66-.33a1.37,1.37,0,0,1,0,.55,1.52,1.52,0,0,1-.51.61c-.08.05-.47-.19-.51-.34-.12-.57-.16-1.17-.24-1.75-.06-.38-.14-.75-.21-1.13l-.31,0v.92a13.54,13.54,0,0,1,0,2.3c-.22,1.11-1.19,1.31-2,.48a6.18,6.18,0,0,1-.64-.88c-.19-.29-.37-.6-.68-1.12-.28.75-.46,1.31-.7,1.85a2.51,2.51,0,0,1-.52.57,3.59,3.59,0,0,1-.22-.68,2.07,2.07,0,0,1,.65-1.87c.3-.28.17-1,.26-1.54a5,5,0,0,1,.23-.75,6.25,6.25,0,0,1,.43.7c.5,1.09,1,2.2,1.5,3.27a.79.79,0,0,0,.67.37,1,1,0,0,0,.52-.67c.06-.75,0-1.51,0-2.27Zm-.76-.68.25.09c.14-.17.39-.33.4-.5s-.2-.44-.31-.66l-.28,0Z"/><path class="cls-1" d="M15.37,50.26l-5.26-.76,1.77,4.94-.2.11A7.44,7.44,0,0,1,11,53.44c-.43-1.1-.79-2.24-1.24-3.34A11.25,11.25,0,0,0,9,49a2.26,2.26,0,0,1-.3-.87,11.56,11.56,0,0,0,0-1.32c-.14-.69-.4-1.34-.58-2a5,5,0,0,1-.1-.87l.29-.07,1,3h.24a3.76,3.76,0,0,0,.2-2.74,1.68,1.68,0,0,0-1.51-1.18,10.61,10.61,0,0,0-2,.21,2.11,2.11,0,0,1,2.26-.69,2.28,2.28,0,0,1,1.8,1.82,4.85,4.85,0,0,1-.39,3c-.48,1-.23,1.53.82,1.74s2.19.38,3.28.58c.48.09.94.21,1.42.31Z"/><path class="cls-1" d="M15,142a.84.84,0,0,1-1.44.45,8.47,8.47,0,0,1-1.23-1.37,7.7,7.7,0,0,1-.49-.73l-.83.57c.82-1.49-.16-2.51-.44-3.65a37.27,37.27,0,0,1-.88-3.69,10.24,10.24,0,0,1,.11-2.76c0-.31.42-.58.64-.87a4.88,4.88,0,0,1,.81.83,2.4,2.4,0,0,1,.28,1c.21,2.32.47,4.63.56,6.94a4.35,4.35,0,0,0,1.6,3.14C14,142.12,14.55,142,15,142Zm-3.59-4.09c.45-1.88-.3-6.82-1.06-7.25C9.61,133.27,10.71,135.57,11.44,137.92Z"/><path class="cls-1" d="M118.74,15.66l-1-4.28-2.07,1.16c.23.88.47,1.74.65,2.6a2.11,2.11,0,0,1,0,1,.64.64,0,0,1-1.2.3,2.31,2.31,0,0,1-.35-2.47c.42-1,.41-1-.61-1-.15,0-.3-.13-.45-.2.14-.15.25-.38.42-.44.7-.25,1.45-.38,2.13-.68a2,2,0,0,0,1.43-2.42,5.76,5.76,0,0,1,0-1.55c0-.15.18-.4.27-.4s.45.14.47.26a4.12,4.12,0,0,1,.21,1.93,6.37,6.37,0,0,0,0,3.57c.17.84.33,1.69.49,2.53Zm-3.18-2c-.75,1-.66,1.87.28,2.39C115.74,15.28,115.65,14.49,115.56,13.69Z"/><path class="cls-1" d="M4.85,88.43a17.25,17.25,0,0,0-.55,1.82,3.83,3.83,0,0,0,.08,1.11,3.88,3.88,0,0,0,1.09-.14,2.77,2.77,0,0,0,1.81-2.74,19.15,19.15,0,0,0-.53-3.35c-.31-1.36-.82-2.68-1.07-4a7.29,7.29,0,0,1,.1-2.59,2.39,2.39,0,0,1,.9-1.2c.57-.45,1.13-.21,1.29.49a3.92,3.92,0,0,1,0,2.3H7.71c0-.48,0-1-.13-1.46a5.78,5.78,0,0,0-.34-1c-.3.24-.71.43-.88.74a3.72,3.72,0,0,0-.16,2.8c.44,1.67,1,3.33,1.35,5a9.54,9.54,0,0,1,.25,2.38A3.56,3.56,0,0,1,5,91.93c-.84.19-1.33-.16-1.32-1A3.08,3.08,0,0,1,4.85,88.43Z"/><path class="cls-1" d="M80.93,25.84a25.72,25.72,0,0,1,4.15-6.36,24.7,24.7,0,0,1,13.78-8,38.28,38.28,0,0,0-10.38,5.44c-3.15,2.48-5.25,5.77-7.23,9.17Z"/><path class="cls-1" d="M163.44,151.45c.08-.23.14-.47.23-.7a3.68,3.68,0,0,1,.57-1.25,1.64,1.64,0,0,1,1.23-.5c.57.09.52.72.4,1.17s-.41,1.16-.63,1.79l.53.11c-.05.09-.06.19-.12.22-.42.23-.86.44-1.29.68-.24.13-.46.3-.7.44s-.33.25-.42.21a.57.57,0,0,1-.25-.42c-.36-2.69-.71-5.39-1-8.08,0-.15.16-.32.24-.49.14.19.39.36.41.55.2,1.85.37,3.7.55,5.54a5.75,5.75,0,0,0,.15.72Zm.36.65.31.14a3.51,3.51,0,0,0,1.26-2.15,1.81,1.81,0,0,0-.15-.62c-.2.1-.5.15-.56.3C164.34,150.53,164.08,151.32,163.8,152.1Z"/><path class="cls-1" d="M19.89,97.79a6.93,6.93,0,0,0-.72,2.94c0,.41,0,.83,0,1.24,0,.16-.19.3-.3.45-.1-.13-.26-.24-.3-.39-.27-.91-.51-1.84-.78-2.76a6,6,0,0,0-.41-.85,9,9,0,0,0-.45,1,18.79,18.79,0,0,1-.59,1.84c-.16.35-.56.59-.85.87a5,5,0,0,1-.61-1,5,5,0,0,1-.13-1.11L15,100l.58,1.47.18,0c.14-.4.29-.79.43-1.19a14.54,14.54,0,0,1,.59-1.76c.33-.68.93-.65,1.29,0a4.51,4.51,0,0,1,.29.72l.31.81a16.61,16.61,0,0,1,.6-2c.14-.32.49-.76.74-.76a1.3,1.3,0,0,1,.9.66,16.72,16.72,0,0,1,.74,2.2,2.35,2.35,0,0,1,0,.64l-.19,0-1.13-3.07Z"/><path class="cls-1" d="M8.4,101.8c-.13-.35-.23-.73-.39-1.06a7.12,7.12,0,0,0-.57-.86c-.22.28-.57.54-.65.86-.37,1.59-.66,3.19-1,4.78a.68.68,0,0,1,0,.15c-.13.25-.27.5-.41.75a3.05,3.05,0,0,1-.28-.78c-.11-2.53-.21-5.06-.28-7.59A10.71,10.71,0,0,1,5,96.47h.29l.18,6.64h.21c.19-.79.34-1.6.59-2.38.19-.63.35-1.45,1.19-1.42s.93.86,1.12,1.49a6.12,6.12,0,0,1,.08,1Z"/><path class="cls-1" d="M126.87,78.38c-.56,0-1.12,0-1.68,0-.26,0-.71-.17-.71-.25a1.49,1.49,0,0,1,.3-.89c.06-.08.5.14.77.22l.12.06c.31-.11.66-.39.88-.31a4.76,4.76,0,0,1,1.51.88,1,1,0,0,1,.07.91,1,1,0,0,1-.73.45,7.31,7.31,0,0,1-1.3-.12c-.61-.06-.9.2-.87.85q.09,3,.13,6a6.25,6.25,0,0,1-.08.85H125c0-.29-.08-.57-.09-.86,0-2-.08-3.92-.15-5.89a2.59,2.59,0,0,0-.36-.85c-.07-.17-.27-.42-.22-.47a.82.82,0,0,1,.55-.31c.59,0,1.18.06,1.77.09a1.43,1.43,0,0,0,.35-.06Z"/><path class="cls-1" d="M131.91,10.52a10.81,10.81,0,0,1,.7-1.5c.18-.26.61-.55.85-.5s.51.49.57.8a2.87,2.87,0,0,1-.62,2.62,1.35,1.35,0,0,1-.9.36,2.9,2.9,0,0,0,1-3.13l-.27-.12a5.51,5.51,0,0,0-.53,1c-.2.72-.3,1.47-.49,2.19a2.05,2.05,0,0,1-.4.59,1.93,1.93,0,0,1-.3-.61c-.34-2-.68-4.07-1-6.11a11.74,11.74,0,0,1-.11-1.78c0-.16.16-.33.24-.5.13.16.35.31.37.49.16,1.28.26,2.57.41,3.85.09.78.23,1.55.35,2.33Z"/><path class="cls-1" d="M39.56,30.32l.69.85a1.22,1.22,0,0,1-1.38-.89c-.12-.37.67-1.1,1.23-1.16l-.29.8c4.82-.71,9,1,13,3.24a5.12,5.12,0,0,1,1.42,1.3C49.72,31.74,45.08,29.76,39.56,30.32Z"/><path class="cls-1" d="M109.29,16a10.8,10.8,0,0,0,.4,1.13.72.72,0,0,0,.44.35c.11,0,.36-.18.38-.31a23.61,23.61,0,0,0,.45-3.72c0-.42-.67-.92-1.13-1.24a3.38,3.38,0,0,1-1.71-3.25c0-.64.23-1.36.91-1.47a2.31,2.31,0,0,1,1.52.48,6.28,6.28,0,0,1,1.24,1.37A2.49,2.49,0,0,1,112,10l-.19.1-.53-.6a4.93,4.93,0,0,0-.83-.92,7.32,7.32,0,0,0-1.33-.61,5.36,5.36,0,0,0-.51,1.54,2.48,2.48,0,0,0,1.46,2.23,2.62,2.62,0,0,1,1.47,3,16.34,16.34,0,0,1-.53,2.5c-.23.73-.79,1-1.3.73A1.51,1.51,0,0,1,109.29,16Z"/><path class="cls-1" d="M23.63,101a22.23,22.23,0,0,0,1.07-2.32,4.72,4.72,0,0,0,.18-1.6.78.78,0,0,0-.44-.53c-.12,0-.44.18-.51.35-.24.6-.39,1.23-.6,1.83a3.19,3.19,0,0,1-.38.6,2.34,2.34,0,0,1-.31-.61c-.25-1.4-.51-2.8-.7-4.2-.1-.8-.08-1.6-.12-2.41l.29,0,.8,5.12h.2a7.24,7.24,0,0,1,.57-.87.91.91,0,0,1,1.61.25,4.64,4.64,0,0,1-1.31,4.3A1.25,1.25,0,0,1,23.63,101Z"/><path class="cls-1" d="M135.41,141.85c.5.7,1,1.39,1.51,2.1.31.44.55.94.89,1.35a4.22,4.22,0,0,0,1,.84c.55.34.9.65.72,1.42a2,2,0,0,0,.5,1.27c1.16,1.71,2.36,3.4,3.54,5.1.17.24.3.52.51.89C143,154.18,135.65,143.33,135.41,141.85Z"/><path class="cls-1" d="M136.9,104.94a6.92,6.92,0,0,1,1.64-.52c3.48-.23,7-.39,10.44-.57a.5.5,0,0,1,.46.21l-12.46,1Z"/><path class="cls-1" d="M2.3,95.94c-2.11,3.24-1.86,6.49-.11,10-.39-.31-.72-.46-.86-.72a6.32,6.32,0,0,1-.71-1.7,13.82,13.82,0,0,1,.05-5.62A3,3,0,0,1,2.3,95.94Z"/><path class="cls-1" d="M13.34,102.26l-.63-.5a7.44,7.44,0,0,1-.4.75c-.31.47-.75.74-1.24.37a2.76,2.76,0,0,1-.78-2.63c.06-.79.66-1.11,1.35-1.29.07,0,.14,0,.35.19a2.27,2.27,0,0,0-.41.21A2,2,0,0,0,11,102c.1.19.32.42.49.42s.41-.25.46-.43c.17-.67.25-1.36.4-2a2.32,2.32,0,0,1,.33-.59,2,2,0,0,1,.29.56C13.12,100.65,13.21,101.36,13.34,102.26Z"/><path class="cls-1" d="M150.36,57h11.76c-3.91.4-7.83.19-11.75.42Z"/><path class="cls-1" d="M12.42,89.65a1,1,0,0,1-1.32-.72,9,9,0,0,1-.2-2.73A8.51,8.51,0,0,1,11.64,84c.07-.18.31-.28.48-.42.11.19.34.4.31.56a5.8,5.8,0,0,1-.59,1.93c-.88,1.33-.8,2.31.45,3.32A1,1,0,0,1,12.42,89.65Z"/><path class="cls-1" d="M104,10.9c-1.11-.14-2.2.09-3-.91a12.47,12.47,0,0,0,1.35.29c.51.05,1,0,1.55.05s.75.2.61.66c-.4,1.26-.85,2.49-1.29,3.73,0,.08-.14.14-.33.17A26.33,26.33,0,0,1,104,10.9Z"/><path class="cls-1" d="M1.52,31.89c-.22.76-.37,1.44-.61,2.09-.07.19-.38.29-.58.42C.22,34.2,0,34,0,33.79A12.16,12.16,0,0,1,.46,31.7c.07-.21.46-.31.7-.45Z"/><path class="cls-1" d="M126.23,130v6.44h-.17V130Z"/><path class="cls-1" d="M108.75,165.5a7.24,7.24,0,0,1-1,.34,3.53,3.53,0,0,1-.86,0c-.16,0-.39,0-.47-.11a.56.56,0,0,1-.05-.49c.07-.11.28-.15.44-.2s.52-.13.78-.2.39-.21.53-.16a3.06,3.06,0,0,1,.67.48Z"/><path class="cls-1" d="M24.17,74.26c-.94,1-2.52.59-3.13-1.06C22,73.85,22.85,74.72,24.17,74.26Z"/><path class="cls-1" d="M103.88,164.72c.33.37.79.72.73.86a1.46,1.46,0,0,1-.8.78c-.13,0-.67-.46-.65-.7S103.57,165.1,103.88,164.72Z"/><path class="cls-1" d="M102.3,165.86c-.4.32-.7.74-1,.72s-.64-.47-.68-.76.45-.68.67-.67S101.9,165.55,102.3,165.86Z"/><path class="cls-1" d="M93.41,166.45c-.38.33-.67.77-.88.73a1.11,1.11,0,0,1-.73-.7c0-.2.39-.71.61-.7S93,166.14,93.41,166.45Z"/><path class="cls-1" d="M100.67,169.44c.46-.33.55-1.18,1.31-.58.32.26.47.52.11.9C101.49,170.38,101.17,169.87,100.67,169.44Z"/><path class="cls-1" d="M131.83,133.67c.28.46.61.76.56,1s-.44.44-.68.65c-.2-.25-.52-.49-.56-.77S131.49,134.08,131.83,133.67Z"/><path class="cls-1" d="M93.09,169.25c.13.27.41.58.35.81a1,1,0,0,1-.69.56c-.19,0-.44-.3-.66-.48l.6-.69Z"/><path class="cls-1" d="M105,169.18c-.45.2-.71.42-1,.41s-.42-.28-.63-.43c.25-.18.49-.46.76-.51S104.64,168.91,105,169.18Z"/><path class="cls-1" d="M117.4,165.27c-.49-.23-.86-.5-.54-1.06.08-.14.48-.27.57-.2C117.92,164.4,117.82,164.83,117.4,165.27Z"/><path class="cls-1" d="M100.15,166c-.33.25-.57.54-.67.5s-.41-.36-.61-.55c.17-.15.35-.44.51-.43S99.8,165.75,100.15,166Z"/><path class="cls-1" d="M85.06,167.1c-.39.24-.6.47-.8.47s-.48-.31-.45-.44a.72.72,0,0,1,.46-.52C84.46,166.58,84.68,166.84,85.06,167.1Z"/><path class="cls-1" d="M85.21,171.07a3.52,3.52,0,0,1-.74.52c-.06,0-.38-.33-.35-.45a.87.87,0,0,1,.46-.5C84.69,170.6,84.9,170.85,85.21,171.07Z"/><path class="cls-1" d="M125.1,74.39v1.87l-.3,0,.23-1.86Z"/><path class="cls-1" d="M96.86,166.25a1.62,1.62,0,0,1-.51.14,2.31,2.31,0,0,1-.62-.18.57.57,0,0,1,0-.26,2.72,2.72,0,0,1,.57,0,2.63,2.63,0,0,1,.53.15Z"/><path class="cls-1" d="M100,144.8a9.2,9.2,0,0,1,.14-1.31c0-.2.27-.35.41-.53.18.16.53.33.53.48,0,.77.28.85.91.57a11.07,11.07,0,0,1,1.37-.47,1.15,1.15,0,0,1,.44.05c.27,0,.55,0,.83.07a1.7,1.7,0,0,1,.69.15.55.55,0,0,1,0,.54,1.4,1.4,0,0,1-.65.26c-.08,0-.24-.12-.28-.09-.92.8-1.95,0-2.9.19a.89.89,0,0,0-.33.18C100.55,145.42,100.55,145.42,100,144.8Z"/><path class="cls-1" d="M100.61,142.37c-.92-.68-1-1-.2-1.53.1-.06.32-.13.33-.1.5.8,1.31,0,1.89.36a.22.22,0,0,0,.21,0c.44-.78,1.17-.25,1.75-.36.17,0,.42.3.63.47a2.42,2.42,0,0,1-.53.53,4.81,4.81,0,0,1-1,.31c-.11,0-.3.08-.35,0a1.09,1.09,0,0,0-1.31-.21,9.81,9.81,0,0,1-1.43.3Z"/><path class="cls-1" d="M97.54,145.15a5.33,5.33,0,0,1-1,.41.79.79,0,0,1-.64-.17c-.15-.18-.28-.57-.18-.71.21-.34.36-.57.11-1a.62.62,0,0,1,.17-.59.65.65,0,0,1,.62,0c.14.1.18.39.2.59a3.25,3.25,0,0,1-.08.69,3.92,3.92,0,0,1,.68-.07,1.35,1.35,0,0,1,.61.16.5.5,0,0,1,.08.49c-.09.17-.31.28-.47.41Z"/><path class="cls-1" d="M91.87,158.15a6.8,6.8,0,0,1-1.18-.66.63.63,0,0,1,0-.62A7.57,7.57,0,0,1,92,155.72c.16-.11.79,1.26.61,1.6A3.78,3.78,0,0,1,91.87,158.15Z"/><path class="cls-1" d="M108.54,160.2a.91.91,0,0,1-1.22.63,1.61,1.61,0,0,0-.67-.07c-.23,0-.52.05-.67-.06a.62.62,0,0,1-.09-.61c.12-.15.42-.15.64-.22s.58-.17.87-.22a1.73,1.73,0,0,1,.68,0,3.06,3.06,0,0,1,.67.35Z"/><path class="cls-1" d="M102,157.17l-.82.93c-.61-.43-1.18-.76-.51-1.54.11-.12-.13-.49-.13-.75a.94.94,0,0,1,.19-.6.59.59,0,0,1,.55,0c.13.09.27.42.2.51C101,156.35,101.46,156.72,102,157.17Z"/><path class="cls-1" d="M92.78,154.35c-.4.39-.65.81-1,.89-.61.14-1.5-.44-1.44-.84.12-.79.91-.51,1.37-.74C91.91,153.58,92.34,154.05,92.78,154.35Z"/><path class="cls-1" d="M96.39,158a.75.75,0,0,1-.55-1.07,2.8,2.8,0,0,0,.06-.66c0-.23,0-.53.13-.68a.63.63,0,0,1,.61-.06c.15.13.17.42.22.65A7,7,0,0,0,97,157C97.17,157.4,96.83,158,96.39,158Z"/><path class="cls-1" d="M96.09,142.58l-.57-.5a1.73,1.73,0,0,1,2.24-.75c.14.08.3.37.26.48a.9.9,0,0,1-.49.49A10.52,10.52,0,0,1,96.09,142.58Z"/><path class="cls-1" d="M108.33,157.08a3,3,0,0,1-.54.7c-.11.07-.38-.13-.58-.15s-.58,0-.87,0-.56,0-.68-.12a.49.49,0,0,1,.67-.71c.38.29.58.08.85-.15s.46-.3.55-.24A3.08,3.08,0,0,1,108.33,157.08Z"/><path class="cls-1" d="M103.64,154.67c-1-.65-1-.75-.19-1.64C104.5,153.37,104.57,153.81,103.64,154.67Z"/><path class="cls-1" d="M111.22,153.35c.51-.36.62-1.16,1.36-.67.31.21.62.42.26.91C112.17,154.5,111.85,153.6,111.22,153.35Z"/><path class="cls-1" d="M100.82,154.87a2.84,2.84,0,0,1-.6-1c0-.17.43-.58.68-.59s.73.36.72.53a3,3,0,0,1-.5,1Z"/><path class="cls-1" d="M96.34,155.17c-.29-.39-.69-.68-.65-.91s.44-.53.69-.79c.26.25.72.5.73.75S96.68,154.78,96.34,155.17Z"/><path class="cls-1" d="M103.66,156.22c.32.41.74.72.72,1a1.07,1.07,0,0,1-.79.67c-.22,0-.69-.46-.67-.69S103.34,156.61,103.66,156.22Z"/><path class="cls-1" d="M107.09,140.24c.35.36,1.19.47.53,1.21-.35.38-.62.47-1,.06C106,140.78,106.91,140.67,107.09,140.24Z"/><path class="cls-1" d="M114.2,154.1c-.3-.41-.68-.71-.64-.94a1,1,0,0,1,.74-.63c.21,0,.49.34.74.52Z"/><path class="cls-1" d="M108.13,143.93c-.41.34-.67.71-1,.74s-.61-.47-.6-.72a.94.94,0,0,1,.66-.68C107.45,143.24,107.73,143.62,108.13,143.93Z"/><path class="cls-1" d="M107.46,152.61c.32.38.74.68.7.89a1.35,1.35,0,0,1-.72.77c-.11,0-.66-.42-.64-.61S107.16,153.05,107.46,152.61Z"/><path class="cls-1" d="M107.15,137.83c.21.49.43.78.4,1s-.35.39-.54.59c-.17-.25-.47-.5-.48-.77S106.83,138.25,107.15,137.83Z"/><path class="cls-1" d="M107.26,146c.24.36.54.6.51.78s-.32.5-.5.75c-.2-.2-.57-.4-.57-.6S107,146.41,107.26,146Z"/><path class="cls-1" d="M112.8,160.62c-.41-.34-.93-.54-.57-1.12a.71.71,0,0,1,.65-.19C113.47,159.7,113.13,160.12,112.8,160.62Z"/><path class="cls-1" d="M94.24,153.61c.26.31.53.5.53.69s-.33.56-.42.53a2.39,2.39,0,0,1-.68-.49Z"/><path class="cls-1" d="M98.31,153.35c.24.39.49.62.46.81s-.33.35-.51.52c-.17-.18-.45-.36-.47-.57S98.05,153.72,98.31,153.35Z"/><path class="cls-1" d="M96.31,151.89c-.23-.38-.5-.61-.46-.78a.7.7,0,0,1,.53-.47c.18,0,.47.32.48.51S96.59,151.54,96.31,151.89Z"/><path class="cls-1" d="M98.49,158c-.25-.41-.48-.63-.5-.87s.3-.32.47-.48c.18.21.43.39.51.63S98.74,157.67,98.49,158Z"/><path class="cls-1" d="M92.46,151.26c-.4.27-.61.51-.81.52s-.51-.31-.49-.42a.84.84,0,0,1,.47-.56C91.8,150.76,92,151,92.46,151.26Z"/><path class="cls-1" d="M94.64,156.45c.22.4.44.63.46.88s-.3.3-.46.45c-.18-.2-.44-.39-.52-.63S94.36,156.81,94.64,156.45Z"/><path class="cls-1" d="M96.42,160.12c-.26-.32-.52-.53-.49-.67s.3-.39.46-.59c.18.17.49.33.51.52S96.65,159.78,96.42,160.12Z"/><path class="cls-1" d="M98.85,160.26c.23.4.44.62.43.82s-.34.48-.45.45-.49-.3-.51-.49S98.57,160.65,98.85,160.26Z"/><path class="cls-1" d="M105.69,152.93c.28.38.56.59.54.77a.74.74,0,0,1-.5.5c-.12,0-.45-.27-.47-.44S105.46,153.34,105.69,152.93Z"/><path class="cls-1" d="M94.19,142.11c-.36.25-.55.46-.78.51s-.45-.32-.43-.37a1.18,1.18,0,0,1,.49-.58C93.59,141.62,93.84,141.89,94.19,142.11Z"/><path class="cls-1" d="M100.87,151.66c-.25-.28-.52-.45-.52-.62a.47.47,0,0,1,.94-.06C101.32,151.14,101.07,151.35,100.87,151.66Z"/><path class="cls-1" d="M116.59,152.39c.06.19.21.42.16.58a.94.94,0,0,1-.48.46c-.07,0-.39-.23-.38-.34s.22-.33.34-.49Z"/><path class="cls-1" d="M114.8,159.83c-.21.1-.41.27-.61.26a.58.58,0,0,1-.38-.41.72.72,0,0,1,.41-.45c.08,0,.28.2.42.31Z"/><path class="cls-1" d="M86.14,113.16a1.83,1.83,0,0,1,.59,1.46,51.81,51.81,0,0,0,.35,5.27,4.53,4.53,0,0,1,0,.52c-.06.91-.15,1.83-.19,2.74,0,.19.15.37.22.56s.17.35.12.43c-.59.86-.15,1.81-.25,2.7a2.62,2.62,0,0,1-.13.48h-.22a10.74,10.74,0,0,0-.12-1.14,23.89,23.89,0,0,1-.27-4.31c-.12-2.27-.25-4.55-.4-6.82C85.82,114.42,85.47,113.79,86.14,113.16Z"/><path class="cls-1" d="M80.9,135c-.24-.41-.51-.65-.48-.87a.71.71,0,0,1,.57-.46.76.76,0,0,1,.53.53C81.51,134.42,81.2,134.63,80.9,135Z"/><path class="cls-1" d="M87.88,133.87c-.5.19-.76.38-1,.36s-.27-.34-.41-.53c.21-.15.41-.41.62-.42S87.47,133.55,87.88,133.87Z"/><path class="cls-1" d="M86.85,129.67c-.26-.33-.56-.56-.53-.73a.83.83,0,0,1,.53-.55c.14,0,.54.3.53.43S87.1,129.3,86.85,129.67Z"/><path class="cls-1" d="M81.32,139.43c-.27-.31-.56-.5-.56-.69s.33-.55.46-.52a.9.9,0,0,1,.6.49C81.87,138.84,81.56,139.1,81.32,139.43Z"/><path class="cls-1" d="M57.54,160.43c.34-.34.59-.78.82-.77s.66.36,1,.56l-1.08,1Z"/><path class="cls-1" d="M69.81,115.39l-.49,1.07-.35-.15.48-1.08Z"/><path class="cls-1" d="M118.42,116.37l.14,2.53-.33,0v-2.53Z"/><path class="cls-1" d="M99.35,62c-.14.83-2.29,2.54-3.17,2.51-.1-.64.49-.62.81-.84l1-.74L98,62.66l-1.32-.19v-.22Z"/><path class="cls-1" d="M92.57,62.92l-.73-.46,2.67-.75a7.3,7.3,0,0,1-.72,1c-.64.59-1.31,1.14-2,1.69a2.66,2.66,0,0,1-.51.24c0-.21-.14-.47-.06-.61a2.78,2.78,0,0,1,.64-.64C92.06,63.26,92.28,63.13,92.57,62.92Z"/><path class="cls-1" d="M104.1,62.43c-1.29-.27-1.85.57-2.39,1.45a6.41,6.41,0,0,1-.7.79c-.38-1.1.5-1.37,1-2.14H99.72v-.32h4.32Z"/><path class="cls-1" d="M91.08,62.65c-1.41-.1-.93,1.38-1.7,1.84-.39-.61.07-2.23.69-2.38.28-.07.63.16,1,.25Z"/><path class="cls-1" d="M102.45,116.11c-.52.81-1,1.62-1.55,2.44l-.3-.19,1.5-2.47Z"/><path class="cls-1" d="M61.48,79.62c-.58.44-1,.51-1.21,0-.09-.18.06-.49.1-.74Z"/><path class="cls-1" d="M61.18,76.32l-.46,1.24-.29-.11a.93.93,0,0,1,.42-1.25Z"/><path class="cls-1" d="M123.63,119.32l-.43-.9.33-.18.5.87Z"/></g></g></svg>